<?xml version="1.0"?>
    
<!--********* Copyright (c) 2024 Pareto Softare, LLC DBA Simplemaps.com ***************************************
************* Free for Commercial Use, full terms at  https://simplemaps.com/resources/svg-license ************
************* Attribution is appreciated! https://simplemaps.com *******************************************-->

<svg baseprofile="tiny" fill="#001B30" height="1000" stroke="#ffffff" stroke-linecap="round" stroke-linejoin="round" stroke-width=".5" version="1.2" viewbox="0 0 1000 1000" width="1000" xmlns="http://www.w3.org/2000/svg">
 <g id="features">
  <path d="M425.9 68.6l1.1-1.8 0.6-0.7 1.6-1.2 0.2-0.4 0-0.5-0.1-2 0.3-0.1 0.5 0.1 0.3-0.1 0.3-0.2 0.2-0.3 0.4-0.4 0.5-0.3 2.3-0.8 0.3-0.1 0-0.3-0.1-0.6 0-0.2 0.3-0.3 0.1-0.5 0.3-1.7 0.1-0.5 0.3-0.5 0.5-0.4 0.3-0.1 0.2 0 0.2 0.1 0.4 0 0.4 0.2 0.1-0.1 0-0.1 0.1-0.2 0.1-0.1 2.4-0.6 2.7-0.8 0.5-0.4 0.1-0.3 0.1-0.2 0.2-0.2 0.2-0.1 0.2 0 0.1 0.1 0.1-0.1 0.1-0.2 0.1-0.4 0.2-2.1 1-3.6 0.3-0.1 1.8 0.5 0.9 0.5 0.6 0.7 0.3 1.1 0.1 0.1 1.9 0.3 0.4 0.3 2.7 3.1 0.6 0.5 0.6 0.2 2.9-0.4 0.2-0.1 0.1-0.1 0.1 0 0.1-0.1 1.5 0.3 1.1 0.1 5.5-0.1 3.5 0 3.9 0.9 1.5 0.8 0.8 0.2 0.2 0 0.4-0.2 0.1 0 0.2 0 0.4 0.1 0.4 0.3 0.5 0.2 0.4 0.1 0.2 0.2 0.6 0.6 0.1 0.3 0.2 0.5 0 0.3-0.1 0.3-0.3 0.4-0.2 0.5 0.3 0.4 0.4 0.3 0.3 0.2 0 0.3-0.1 0.4 0 0.2 0.1 0.2 0.4 0.2 0 0.2 0.2 0.5 0.3 0.4 1.1 1.1 0 0.4-0.2 0.2-0.2 0.2 0 0.3-0.1 0.2-0.1 0.4 0 0.3 0.1 0.3 0.1 0.1 0.2 0.1 0.2 0.2 0.5 1.2 0.3 0.1 0.4 0.3 0.3 0.5 0.1 0.6-0.2 0.5 0.3 0.3 0 1.1 0.4 0.1 0-0.2 0.5-1.8 0.2-0.4 0-1.6 0.9-3.4 0.3-0.5 1-1 0.5-0.8 1.6-4 0.1-0.2 0.5-0.2 0.1-0.3 0.7-1.6 0.3-1.3 0.2-0.3 0.1-0.1 0.1-0.1 0.2 0 0.1-0.2 0.1-0.2 0.1-0.4 0.2-0.5 0-0.1 0.1-0.1 0.3-0.1 0.5-0.2 1.9 0.2 0.5 0.2 0.8 0.7 0.2 0.1 1-0.8 0.3-0.2 0.8-0.1 6.6 0 6.5 0 3-0.1 0.9 0.1 0.3 0.1 0.1 0.2 0.1 0.9 0 0.2 0 0.2 0.1 0.2 0 0.7 0.2 0.4 0.3 0.3 0.9 0.5 0.9 0.7 0.3 0.2 0.1 0.2 0 0.2 0 0.2 0.2 0.1 0.2 0 0.2 0.1 0.2 0.1 0.1 0.2-0.2 0 0.1 0.3 0 0.2-0.2 0.2 0 0.2 0.1 0.2 0.3 0.2 0.3 0.1 0.2 0 0.5 0.1 0.4 0.3 0.5 0.7 0.2 0.1 0.8 0.3 0.2 0.1 0.2 0.3 0.3 0.4 1.5 1 0.4 0.2 0.1 0 0.8 0.1 0.2 0 0.1 0.1 0.1 0.1 0 0.2 0 0.2 0.1 0.2 0.1 0 0.1 0 0.1 0 0.5 0.6 0.2 0.4-0.2 0.3-0.2 0.4 0 0.3 0.2 0.3 0.5 0.2 0.3 0.1 0.1-0.1 0.1 0.1 0.1 0.2-0.1 0.5 0 0.3 0.4 0.2-0.3 0.6 0.1 0.1 0.3 0.1 0.1 0.2 0.1 0.2 0.1 0.3 0.6 0.6 0.1 0.2 0 0.2 0.1 0.1 0.1 0.1 0.1 0.1 0.1 0.1 0.2 0.2 0.1 0 0.1 0.3 0.2 0.2 0.4 0.5 0.4 0.4 0.3 0.9 0.3 0.3 0 0.2-0.1 0.5 0.1 0.2 0 0.1 0.3 0.4 0.7 0.8 2.3 1.4 0.2 0.2 0.4 0.7 0.3 0.2 0.5 0.3 0.2 0.2 0.2 0.2 0.1 0.2 0.1 0.3 0 0.4 0.1 0.4 0.2 0.2 0.3 0.1 0.3 0.2 0.3 0.4 0.2 0.1 0.3 0.1 1 0 0.3 0.1 1 1.2 0.2 0 0.2 0.1 0.4 0-0.1 0.2-0.1 0.2 0 0.3 0.3 0.2 0.2 0.5 0.2 0.1 0.5 0.1 0.3 0 0.4 0.2 0.3 0.2 0.2 0.2 0.2 0.2 0.3 0.1 0.5 0 1.4 0.6 0.1 0.3 0.1 0.3 0.3 0.3 0.4 0.2 0.2 0 0.4 0.5 0.2 0.1 0.1 0 0.4 0 0.2 0 0.2 0.2 0.3 0.3 0.3 0.3 0.4 0.1 0.2 0.2 0.1 0.5-0.1 0.5-0.2 0.4 0.2 0.2 0.4 0.6 0.5 0.3 0.4 0.4 0.2 0.5 0.1 0.3 0.1 0.1 0.3 0.5 0.2 0.2 0.6 0.4 0.8-0.2 0.8 0.4 0.7 0.6 0.6 0.3 0.4 0.1 0.6-0.1 1.2 0 0.2 0.1 0.4 0.4 0.2 0 1 0 0.2 0 0.3 0.1 0.3 0.2 0.2 0 0 0.1 0.4 0.7 0.1 0.1 0.7 0 0.4 0.2 0.7 0.5 1.3 0.3 0.7-0.1 0.2 0.1 0.2 0.1 0.4 0.4 0.2 0.1 0.2 0 0.7 0 1.6 0.2 1.6 0 0.4-0.1 1-0.4 0.4 0 0.4 0.1 7.5 4.9 0.8 0.8 0.3 0.5 0.2 0.2 0.2 0.1 0.5 0 0.4 0.2 0.3 0.1 0.2 0.1 0.2 0.3 0.3 0.2 0.4 0.2 0.5 0.2 0.1 0.2 0.1 0.1 0 0.2 0.1 0.2 0.5 0.2 0.8 0.7 0.2 0.3 0.4 0.8 0.4 0.4 0.6 0.2 0.3 0.4 0.2 0 0.3 0.1 0.2 0.1 0.1 0.2 0.2 0.1 0.9 0.3 0.5 0.4 0.5 0.2 0.8 0.5 0.4 0.2 0.4 0 0.1 0 0.2 0.1 0.5 0.4 0.2 0.2 0.6 0.2 4 3 0.4 0.1 1.1 0 0.3 0.1 0.1 0.1 0.2 0.1 0.1 0.1 0.1 0.2 0.1 0.1 4.5 0.9 0.5 0.2 0.3 0.3 0.5 0.7 1.3 1.5 0.1 0.2 0.1 0.2 0.1 0.1 0.2 0.1 0.3-0.1 0.2-0.1 0.3-0.2 0.6-0.6 0.3-0.3 0.4 0 1.9 1.3 0.2 0.4 0.2 0 1.5 0.7 0.2 0 0.4-0.1 0.2 0.1 0.2 0.2 0.1 0.2 0.1 0.3 0.3 0.1 1.6 0 0.4 0.1 0.3 0.3 0.9 1.1 0.3 0.2 0.7 0.3 0.2 0.3 0.7 1.5 0.4 0.6 0.6 0.4 0.7 1.6 0 0.3 1.3 1 0.2 0.3 0.2 0.3 0 0.4-0.3 2-0.1 0.4-0.2 0.3-0.3 0-0.2 0.2-0.1 0.5-0.1 0.2-0.4 0-0.6-0.1 0 0.1-0.1 0.5-0.1 0.2-0.2 0.1-0.2 0.1-0.2-0.1-0.3 0.1-0.4 0.1-0.3 0.3-0.4 0.7 0.1 0.1 0.2 0.2 0.2 0.1 0.2 0-0.2 0.3-0.4 0.4-0.4 0.3-0.3 0.1-0.3 0.2 0 0.5 0.3 0.7-0.2 0.4-0.1 0.1-0.3 0.2-0.4 0.2-0.5 0.2 0 0.1 0 0.2 0.5 0.2 0 0.2-0.1 0.3-0.1 0.2-0.7 0.6-0.2 0.3 1 0.3-0.1 0.3-0.2 0.4-2.4 1.8-0.7 0.4-1.3 0.5-0.3 0.2-0.2 0.8-0.1 0.4-0.2 0.3-0.1-0.2-0.1-0.1-0.2-0.1-0.2-0.1 0.1 0.4 0.2 0.3 0.3 0.1 0.3 0.2 0 0.4-0.3 0.2-0.5 0.2-0.3 0.1-0.2 0.2 0 0.3 0.1 0.8 0 0.4-0.1 0.3-0.7 1.2-0.2 0.4 0.1 0.3 0.5 0.5-0.1 0.2-0.3 0.2 0 0.2-0.1 0.4-0.1 0.4-0.1 0.3 0.1 0.4 0.1 0.1 0.5 0.4 0.1 0.2 0.2 0.3 0.1 0.1-0.1 0.2-0.4 0.2 0 0.1 0 0.3 0.1 0.2 0.1 0.2 0 0.2-0.1 0.1-0.2 0-0.7-0.1-0.1-0.1-0.1 0.3-0.1 0.4-0.1 1.9-0.1 0.1-0.1 0-0.3 0-0.3 0.1 0 0.2 0.2 0.3 0.1 0.2-0.3 0.3-0.4-0.1-0.4-0.1-0.3 0.1-0.3 0.5 0.3 0.4 0.4 0.2 0.1 0.4-0.3 0.3-0.9 0.1-0.2 0.2-0.2 0.3-0.5 0.2-0.9 0.2-0.3 0.2-0.2 0.3 0.1 0.3 0.3 0.3-0.2 0.3-0.4 0.5-0.1 0.3-0.1 0.2-0.1 0.2 0 0.4-0.1 0.1-0.1-0.1-0.2-0.1 0-0.1 0-0.2-0.2-0.1-0.2 0.1-0.1 0.2-0.1 0.2 0 0.1-0.1 0.2 0 0.5 0 0.3-0.1 0.3-1 0.1-0.5 0.3-0.3 0.5-0.1 0.7 0.1 0.3 0.3 0.3 0.5 0.3 0.3 0.5 0 0.5-0.1 1.1 0.1 0 1.9-0.9 5.6-0.4 2.3 0.2 0.3 0 1.2-0.2 0.7 0 0.4 0.1 1.2 0.3 0.6 0.2 0.3 0.1 0.9 0.2 0.1 0 0.8 0.3 2.2 0.4 0.2 0.1 3.4 1.8 0.3 0.1 0.1 0 0.6 0.1 2-0.3 0.6 0 0.1 0 0.4 0.1 0.2 0.1 0.3 0.4 0.2 0.1 0.2 0.1 0.2 0.1 0.9 0.2 0 0.1 0.3 0.1 0.5 0.4 0.2 0.1 0.2 0.1 0.5 0 0.2 0.1 0.8 0 0.7-0.2 2-1.1 0.8-0.3 0.7-0.1 0.8 0.3 1.2 1.3 0.8 0.5 0.8-0.2 1-0.8 1-0.3 0.5-0.1 1.3 0.2 0.9 1 0.4 0.7 0.5 0.6 0.6 0.5 0.7 0.2 0.7-0.1 0.3-0.6 0.3-0.7 0.4-0.6 0.4-0.4 0.3-0.5 0-0.5 0-0.7 0.1-0.5 0.4-0.2 0.6-0.2 0.5-0.2 0.8-0.9 0.4-0.3 0.5-0.3 0.5 0.1 0.5 0.1 1.4 0.5 0.5 0.1 0.4 0 0.1 0 0.5-0.1 0.5 0 0.4 0.2 0.3 0.4 0.3 0.9 0.2 0.2 0.2 0.2 0.6 0.1 1.2 0.7 0.8-0.6 0.8-0.9 0.5-0.4 0.6-0.1 0.4-0.3 0.3-0.4 0.2-0.5 0.1-0.3-0.1-0.2 0-0.2 0.3-0.5 0-0.2 0-0.3-0.1-0.2-0.5-1 0-0.3 0.5-0.2 0.4-0.2 0.1-0.4 0.1-0.5 0.2-0.3 0.4-0.1 0.6 0.1 0.5-0.1 0.2-0.3 0.1-1.1 0.1-0.5 0.3-0.4 0.3-0.4 0.4-0.2 0.4-0.2 1-0.1 1-0.6 0.5 0 0.4 0.2 0.4 0.2 0.3 0.1 0.8 0.1 0.5-0.1 0.3-0.3 0.1-0.5-0.3-0.9 0.2-0.4 1.3-1.4 0.4-0.1 1-0.1 0.4-0.2 0.3-0.3 0.2-0.4 0.1-0.4 0.3-1 0.2-0.5 0.4-0.3 0.5-0.2 0.9 0 0.2 0.1 0 0.2 0.2 0 0.2-0.1 0.3-0.4 0.1-0.5 0.1-0.6 0-0.5 0-0.4-0.1-0.3-0.1-0.4 0.2-0.4 0.3-0.4 0.6-0.4 0.7-0.8 0.1-0.3 0.1-0.4 0.2-1.4 0.1-0.1 0-0.1 0.3-0.8 0-1 0-0.5 0-0.1 0.2-0.3 0.2-0.4 0.2-0.2-0.1-0.3-0.4-0.5-0.1-0.3 0.5-1.5 0-0.5-0.2-0.8-0.1-0.7-0.1-0.2 0-0.2 0.1-0.3 0.2-0.1 0.5 0 0.1-0.1 0.2-0.3 0-0.4-0.2-1.1 0.2-0.3 0.2-0.4 0.2-0.4 0-0.5-0.1-0.3-0.5-0.6-0.1-0.3-0.1-0.5-0.3-1.2 0-0.6 0.2-0.2 0.7 0.1 0.3-0.2-0.1-0.5-0.3-0.8 0.1-0.4 0.8-0.1 0.3 0.1 0.1 0.3 0 0.4 0.2 0.2 0.4-0.1 0.4 0.1 0.4 0.3 0.3 0.4 0 0.5 0 0.2 0.1 0.2 0.1 0.2 0.2-0.1 0.1-0.2-0.1-0.5 0-0.2 0.2-0.2 0.3-0.3 0.2-0.1 0-0.2 0-0.3 0-0.2 0.2-0.2 0.2-0.1 0.2 0 0.3 0.2 0.2-0.1 0.4-0.5 0.2-0.1 0.5-0.1 0.3 0.1 0.2 0.3 0.2 0.5 0.2 0.2 0.1-0.1 0.1-0.4 0.2 0 0.1 0 0.4 0.1 0.5 0-0.1-0.4-0.5-0.8 0.2 0 0.2 0 0.4 0.1 0.3 0 0.2-0.1 0.5-0.7 0.2-0.1 0.1 0 0.1 0 0.1 0.1-0.1 0.5-0.2 0.3-0.1 0.4 0 0.5 0.2 0.2 0.1 0.2 0.2 0.2 0.2 0 0.1-0.2 0-0.2 0-0.3-0.1-0.2 0.2-0.2 0.2 0.1 0.3 0.4 0.3-0.1 0.1-0.1 0.2 0 0.2 0 0.4 0.2 0.3 0.4 0.1 0.4 0.1 0.5 0.2 0.5 0.4 0 0.8-0.5 0.2 0.2 0.2 0.5 0.3 0.9-0.1 0.2-0.1 0.1 0 0.2 0 0.3 0.1 0.3 0.4 0.4 0.2 0.2 0.2 0.4 0.1 0.4-0.1 1.4 0.2 1.2 0 0.3-0.1 0.2 0 0.2 0 0.3 0.2 0.2 0.7 0.6 0.6 0.7 0.2 0.7 0.1 0.7 0.3 0.8 1 1.5 0.4 0.7 0.1 0.9-0.2 0.8-0.9 1.2-0.2 0.7 0.2 2.2 0 0.7-0.3 0.2-0.1 0.2-0.1 0.2 0.1 0.2 0 0.2 0.1 0.2 0-0.1 0 0.4-0.3 0.8 0 0.4 0.1 0.9 0 0.4-0.1 0.5-0.2 0.1-0.2 0-0.2 0.1 0 0.2 0.1 0.3 0.1 0.2 0.2 0 0.1 0.1 0 0.2-0.1 0.4 0 0.2 0.1 0 0.2 0.1 0.1 0 0.2 0.9 0.3 1.3-0.1 0.8-0.2 0.8-0.9 1.9-0.1 0.2-0.2 0.1-0.3 0-0.1 0.1-0.1 0.3 0.1 0.6-0.1 0.4-0.1 0.1-0.3 0.2-0.1 0.1 0 0.2 0.2 0.2 0 0.2-0.2 0.4-0.2 0.2-0.2-0.2-0.2-0.4-0.2-0.3-0.3-0.1-0.1 0.1-0.2 0.8-0.2 0.2-0.4-0.1-0.2-0.2-0.3-0.2-0.3 0.2 0 0.3 0.1 0.3 0 0.2-0.4 0.1-0.2 0-0.1-0.1-0.1-0.1-0.1 0-0.1 0.2-0.2 0.4-1.5 1.7-0.8 0.1-0.6-0.2 0.1-0.5-0.2-0.2-0.3-0.2-0.2 0.4-0.6 1.6-0.1 0.2-0.1 0.2-0.1 0.2 0 0.4 0 0.2-0.2 0.1-0.2 0-0.2 0.1-0.1 0.2-0.1 0.2-0.1 0.3-0.1 0.2-0.2 0-0.4 0.1-0.3-0.3-0.2-0.3-0.3-0.2 0 0.7 0 0.2-0.1 0.3-0.2 0.1-0.2 0.1-0.1-0.2-0.1-0.6-0.2-0.3-0.3 0-0.8 0-0.4 0.1 0 0.2 0.3 0.6 0 0.3-0.4 0.2-1.4 0.4-0.2 0-0.2-0.1-0.1-0.1-0.2-0.4 0-0.1-0.2 0-0.1-0.1-0.1 0-0.2 0.2-0.1 0.2-0.1 0.2-0.2 0.4-0.2 0.5-0.3 0.2-0.2 0-0.1-0.4-0.1-0.1-0.1 0-0.2 0.1 0 0.3 0 0.3 0 0.2-0.1 0.1-0.2 0.1-0.2 0.1-0.5-0.1-0.2 0-0.8 0.3-0.2 0 0-0.1-0.1-0.1-0.1-0.1 0-0.1 0.1-0.2 0-0.1-0.1-0.2-0.3 0-0.3 0.3-0.1 0.2-0.2 0.4 0 0.6-0.2 0.5-0.4 0.2-0.5 0-0.2 0.1 0 0.9-0.1 1-0.1 0.5-0.1 0.3-0.4 0.1-1.1 1-0.5 0.1-0.4-0.2-0.3-0.2-0.5 0-0.3 0.1 0.2 0.4 0.6 0.6 0.3 0.5 0 0.2-0.4 0-0.4-0.2-0.2 0-0.5 0.1-0.2 0 0 0.2-0.2 0.6-0.4-0.1-0.5-0.4-0.3-0.1-0.4 0.2-0.3 0.3-0.3 0.4-0.7 0.6-0.2 0.1-0.2 0-0.5-0.2-0.2 0-0.4 0.3 0 0.5-0.1 0.4-0.5 0.1-0.2 0-0.1 0.1-0.1 0.1 0 0.2 0 0.5-0.1 0.2-0.1 0.2-0.9 1.1-0.1 0.2-0.5 0.1-0.3 0-0.1 0-0.1-0.2-0.1 0-0.3 0.1-0.1 0.1-0.2 0.5-0.1 0.1-0.3 0.2-0.1 0.1-0.1 0.2 0 0.2-0.1 0.1-0.2 0.1-0.3-0.1 0-0.2 0-0.2-0.1-0.1-0.4-0.1-0.3 0.3-0.1 0.3 0 0.1-0.2 0.2-0.2 0.1-0.9 0.8-1.3 0.5-0.5 0.4 0.1 0.6 0.2 0.2 0.9 0.3 0.3 0.1 0.2 0.1 0.3 0.3 0.2 0.6-0.3 1.1-0.1 0.3-0.2 0.3-0.2 0.2-0.2-0.1-0.1-0.4-0.3-0.5-0.8-0.2-0.8-0.1-0.7-0.1-0.9 0.4-0.4 0.3 0.1 0.5 0.1 0.2 0 1.1 0 0.2-0.1 0.1-0.2 0.1-0.2 0.1-0.6 0-0.6 0.3-0.7 0.2-0.2 0.3 0 0.4 0 0.5 0 0.9-0.4 0.5-1.3 1-1.7 2.2-0.7 0.5-0.9 0.2-0.5 0.2-0.1 0.4-0.2 2-0.4 0.8-1.4 0.9-0.4 0.9-0.1 0.9 0 0.5-0.3 0.4-0.3 0.2-1.5 0.4-0.7 0.4-0.7 0.5-0.7 0.7-0.6 0.8-0.1 0.3-0.1 0.4 0 0.3 0.1 0.3-0.2 0.5-0.4 1-0.2 0.4-0.3 0.3-0.3 0.2-0.7 0.4-0.2 0.1-0.2 0.2-0.1 0.2-0.1 0.2 0 0.2 0 0.3-0.1 0.2-0.3 0.2-0.2 0.2-0.1 0.3 0 0.3-0.1 0.2-1.6 1.4-0.2 0.3-0.1 0.2-0.8 0.7-0.3 0.4-0.3 0.8-0.6 0.6-0.1 0.3-0.2 0.2-1.5 1.7-0.4 0.3-0.4 0.1-0.9 0.1-0.9 0.1-0.9 0.3-0.6 0.6-0.3 0.8-0.2 2.8-0.2 0.3-1.8 1.4-1.9 2.5-0.9 0.7-0.4 0.1-0.9 0.2-0.5 0-0.2 0.2 0.1 0.5 0.3 1.1-0.1 0.9-0.5 0.8-4 3.7-0.6 0.7-0.3 0.9 0.1 0.9 0.5 1 0.3 0.4 0.4 1 0.2 0.6 0.2 0.8 0.1 0.7 0.1 0.4 0.1 0.6 0 1 0 0.2-0.2 0.6-0.1 0.4-0.2 0.1-0.5-0.1-0.9 0.3-0.4 0.2-0.1 0.5 0.1 0.2 0.9 1.3 0.1 1.2-0.3 0.8-0.6 0.8-0.2 1.1 0.1 1 0 0.7-0.2 0.2-0.4 1-0.2 0.1-0.3 0.3-0.2 0.1-0.2 0.5-0.1 1.1-0.2 0.5-0.3 0.3-0.8 0.5-0.4 0.3-0.2 0.7 0.5 0.7 0.2 0.1 0.6 0.5 0.5 0.7 0.2 1-0.2 1.1-1.3 3.8-0.2 0.3-0.5 0.2-1 0.2-0.4 0.2-0.3 0.3-0.6 0.6-0.2 0.5 0.3 0.5 0.7 0.7 0.2 0.8 0 1.1 0 1.1-0.2 0.9-0.5 0.8-0.1 0.5 0.2 0.5 1.4 1.9 0.2 0.7-0.1 0.7-1.3 2-0.5 1-0.2 0.3 0 0.1 0-0.1-0.4 1.1-0.1 1.1 0.3 3 0.3 1.7 0.3 2.5 0.2 0.5 0.6 0.9 0.1 0.4-0.1 0.5-0.3 0.9-0.1 0.6 0.3 1.1 0 0.6-0.2 0.3-0.8 0.7-0.2 0-0.5 0.1-0.3 0-2.9-0.5-0.7 0.4-0.1 0.1-0.2 0.2 0 0.2 0.4 0.2 0 0.2-0.1 0.3 0 0.2-0.1 0.5-0.2 1.1 0 0.5 0.3 1.1 0.1 0.6-0.2 0.2-0.4 0.2-0.4 0.5-0.6 0.8-0.3 0.9-0.4 1.1-0.2 1.1-0.1 1 0.2 1.1-0.1 0.3-0.2 0.5-0.1 1.8 0 0.6 0.1 1 0.4 0.8 1.1 1.6 0.2 0.4 0.1 0.5 0.1 1.1 0.2 1.4 0 0.3-0.1 0.3 0 0.1 0 0.1 0.2 0.1 0.2 0 0.5 0.3 0.2 0.1 0.1 0.4 0.1 0.5 0 1.1-0.2 0.8 0 0.3 0.1 0.1 0.2 0.4 0 0.3-0.7 0.8-0.1 0.2-0.1 0.3-0.1 0.2-0.3 0.4-0.4 0.2-0.4 0.2-0.4-0.2-0.1-0.1-0.8 0-0.1 0.1-0.1 0.2-0.1 0.2-0.3 0 1.2 0.7 0.4 0.3 0.6 0.5 0.2 0.5-0.4 0.8-0.2 0.2-0.2 0.3-0.4 0.4 0.1 0.4 0.1 0.3 0.6 0.5 0 0.2 0 0.5 0 0.3 0.5 0.3 0.4 0.2 0.4 0.3 0.7 0.5 0.3 0.3 0.4 0.6 0.3 0.6 0.3 0.6 1.7 1.1 0.9 0.9 0.7 0.3 0.8 0.1 0.5 0.1 0.6 0.4 0.7 0.2 0.6 0.2 0.8 0.9 0.5 0.2 1.2-0.1 0.2 0.1 0.4 0.4 1 0.6 0.9 1 1.5 0.6 1.8 1.3 1.6 0.7 0.8 0.8 0.8 0.6 2 2 0.8 1 0.9 1.1 0.4 0.4 1 1.6 0.8 1.6 0.6 1.1 0.1 0.6-0.3 1.1-0.8 1-0.9 1.2-2 3.2-0.6 0.8-0.3 1-0.1 0.6-0.2 1.1-0.3 0.8 0.2 0.9 0.2 1 0 0.8 0.1 0.2 0.1 0.3 0.3 0.3 0.1 0.3 0.1 0 0.5 1.5 0.1 0.5 0.1 0.2 0.3 0.2 0.4 0.5 0.1 0.1 0.1 0.5 0.3 0.6 2.9 2.8 2.1 1.4 1 0.1 0.4 0.3 0.2 0.3-0.3 0.4 0.1 0.2 0.4-0.4 0.4-0.3 0.9-0.4 0.5-0.1 1.4 0.1-0.3-0.6 0.1-0.3 0.3-0.1 0.4 0.3 0.1 0.3 0.3 1.1 0.1 0.2 0.4 0.5 0 3.2 0.5 1.4 0 0.6 0.1 3.5 0.1 3-0.1 1.1-0.4 0.9-2.1 2.9-2 3.2-2.7 4.8-0.8 1.7-2.3 3.2-0.7 0.8-2.2 2.1-0.9 1.4-0.2 0.2-0.4 0.2-1.6 2.1-0.6 1-0.5 1-0.4 1.1-0.2 1.1-0.1 1.1 0.1 0.2 0.1 0.3 0.1 0.2 0 0.1-0.1 0.3 0 0.1 0 0.8 0 0.3-0.5 0.9-0.7 0.9-2 1.4-2.1 1.2-1.5 1.1-3.2 2-0.7 0.1-0.3 0.1-1.1 1-0.8 0.4-2.5 1-0.7 0.5-0.4 0.2-1.8 0.3-1.6 0.5-1.5 0.9-3.4 0.8-4.3 1.5-1.2 0.8-0.7 0.2-0.7 0.3-5.9 1.2-5.9 1.2-3.4 1.4-0.4 0.1-1.5-0.1-9.4 1.8-3.3 0.6-3.2 0.4-4.3 0.9-2.3-0.1-0.6-0.1-0.2 0-0.3 0-0.2 0.1-0.2 0.3-2 0.5-4-0.6-1.9 0.1-1.3 0.4-0.2 0.2-0.3 0.1-3.3-0.4-0.3-0.3-0.3-0.1-0.2-0.2-0.2-0.1-0.1 0-0.2 0.1-0.1 0-0.1 0.1-0.9 0.2-1-0.1-3.9-1.1-0.7-0.4-0.6-0.6-0.5-0.8-0.3-0.9-0.3-0.5-0.3-0.2-3.3-0.3-0.4-0.2-0.4-0.1-0.5 0.3-0.2 0.4 0.2 0.2-0.1 0.6 0.4 1-0.2 0.5 0.3-0.3 0.3 0 0.2 0.2 0.1 0.3 0 1 0 0.2 0.3 0.2 0.2 0 0.7-0.2 0 0.2-0.1 0.3-0.1 0.4 0 0.4-0.5 0.3-0.2 0.2-0.3 1-0.2 0.5-0.1 0.3-0.2 0.2 0 0.2 0.1 0.2 0.2 0.2 0.1 0.2-0.1 0.5-0.1 0.4 0 0.4 0.2 0.5 0.3 0.5 1 0.7 0.4 0.5-0.4-0.1-0.2 0-0.6-0.3-0.2 0.3 0.1 0.3 0.5 0.2 0.5 0.1 1.6 0.1 0.5 0.1 1.7 0.8 0.8 0.7 0.5 0.7 0 0.3-0.1 0.3-0.1 0.3-0.2 0.2-0.3 0.1-0.2 0-0.1-0.2-0.1-0.1-0.4-0.2-1.2-1.1-0.4-0.5-0.1-0.2-0.1-0.3-0.1-0.1-0.2-0.1-0.1 0.1-0.1 0-0.4-0.1-1.2 0.1 0.1 0.3 0 0.2 0.1 0.3 0.2 0.2 0.2 0 0.3 0 0.3 0 0.1 0.2 0.1 0.6 0.4 0.5 0.9 0.9 0.4 0.2 1 0.3 0.5 0 0.1 0.1 0.1 0.3 0 0.3 0 0.3-0.3 0.3-0.1 0.2-0.1 1.9-0.1 0.3-0.1 0.3-0.5 3.7-0.1 2.4-0.1 0.4-0.1 0-0.7 0.4-0.1 0.2-1.6-0.3-0.4-0.3-0.9-0.7-0.1 0.3 0.1 0.2 0.4 0.6-0.5 0.2-0.1 0.2 0 0.4 0 0.7 0 0.4-0.3 1-0.2 0.9-0.4 1.1-0.1 0.3-0.1 0.2 0.6 1.6-0.1 0.6-0.3 1.1-0.1 0.5-0.1 0.5-0.5 0.3-0.5 0.2-0.4 0.2-0.4 0.3-0.3 0.5-0.3 0.6-0.2 0.5 0.1 0.4 0.7 1.2 0.3 1.6 0.2 0.3 0 0.1 0.3 0.6 0.2 0.2 0.6 0.2 0.7 0.5 0.3 0 0.1 0.2-0.1 0.6 0.1 0.2 0.3 0.2 0.2 0.4 0.3 0.3 0.4-0.4 0.3 1.3 0 0.7-0.3 0.3-1-0.2-0.1-0.1-0.4-0.5-0.2-0.2 0 0.3 0 0.2 0.1 0.2 0.1 0.2 0.2 0.3-0.1 0.2-0.1 0.1 0.2 0.5 0.1 0.1 1.6-1 0.7-0.3 0.6 0-0.2 0.3-0.8 0.6-0.1 0.3-0.1 0.4-0.1 0.8-0.1 0.5-0.1 0.4-0.6 1.2-0.6 1.5-0.5 0.7-3.1 1.7-2.5 1.5-1.4 0.6-0.3 0.3-0.4 0.3-0.4 0.2-0.5 0.1-0.5 0-0.5 0-0.2 0-0.2 0.3-0.6 0.5-0.3 0.4-1.5 0.4-2.4 1.3-1 0.2-4.5-0.2-0.9 0.3-0.5 0-1.9-0.1-3 0.1-3.3 0-0.9-0.2-0.9-0.5-2-2-1-0.5-0.8 0.1-0.2-0.2-0.1-0.2 0.1-0.3 0.2-0.4-0.2-0.2-0.5 0.1-0.6 0.3-0.4 0.1-0.8-0.2-5.1-2.7-2.8-0.8-1.9-1-1.9-0.4-1-0.1-1.4 0.1-0.7 0-0.5-0.2 0-0.4 0.4-0.3 0.5-0.2 0.4 0.1-0.1 0.5 0.1 0 0.2-0.1 0.1-0.1 1.3 0 0.3-0.1 0.2-0.1-0.1-0.6-0.6-0.2-0.4-0.3 0.6-0.6-0.5-0.4-2-0.4-1.1 0.1-0.8 0.3-0.2 0.2 0.4 0.1 0.7-0.2 0.4 0.1-0.3 0.4 0.1 0.3 0.2 0.2 0.2 0.2-2.1-0.1-0.3 0.2-0.3 0.3-1.7 1.4-0.2 0.2 0 0.2 0 0.7-0.1 0.2-0.3 0.5-0.2 0.6-0.2 0.6-0.1 0.7 0 1.1 0.6 4.7 0.8 3.2 0.1 0.9 0.5 1.5 0.1 0.9 0.3 0.9 1.1 1.2 0.3 0.9 0 0.8-0.2 0.9-0.2 0.8-0.3 0.6-0.2 0.8 0.2 1 0.6 1.5 0 1-0.4 1.2-0.9 2-0.3 1.2 0.1 1 0.3 0.7 1.1 2.3 0.6 0.9 0.8 0.8 1.6 1.1 0.3 0 0.4 0 0.3 0 0.1 0.1 0.4 0.3 0.5 0.3 0.5 0.2 0.4 0.1 1.1 0 0.4 0.1 0.4 0.4 0.5 0.3 0.5-0.1 0.5-0.2 0.5-0.1 0.5 0 0.3 0.1 0.2 0.2 0.3 0.4 0.1 0.2-0.6 0.2-0.4 0.4-1.6 2.3-0.1 0.3-0.2 0.9 0.1 0.2 0.6 0.2 1.7-0.2 0.9 0.5 0.7-0.1 0.7-0.1 0.4-0.1 0.5-0.3 0.3-0.1 3.9 0.3 0.5-0.2 0.2-0.4 0.1-0.1 0.6-0.6 0.2-0.2 0-0.2 0-0.5 0-0.2-0.1-0.1-0.1-0.2 0.1-0.1 0.1-0.1 0.1 0 0-0.2 0-0.3-0.2-0.6-0.1-0.3-0.1-0.3-0.5-0.2-0.9-0.1-2.3 0.1-1.1-0.1-0.9-0.6 0.7-0.4 3-0.4 2.6-1.4 1.6-1.3 1.8-0.8 1.3-0.4 0.9 0.2 0.7 0.8 0.5 0.8 0.6 1.7 0.1 0.5 0.1 0.5 0.4 0.3 0.6 0.6 0.5 1 0.2 1.2-0.2 2.8 0.4 4.3-0.3 1.1-0.5 1.2-0.3 1.1 0.2 1-1 1.5-1.4 0.6-4.2 1-1.3 0-0.5 0.1-0.9 0.4-0.8 0.2-0.6-0.5-0.5-0.6-0.7-1.1-0.4-0.4-0.4-0.2-0.3-0.3 0-0.6 0.1-0.7 0.2-0.3 0.3-1.8 0.3-0.2 0.2-0.1-0.1-0.2-0.5-0.4-0.1-0.1-0.3-0.2-0.1-0.1-0.1-0.1-0.1-0.1-0.7-0.4-0.3-0.3-0.1-0.6-0.2-0.3-0.5-0.4-0.9-0.4-1-0.2-2.2-0.1-1.5 0.3-0.5 0.2-0.5 0.2-0.5 0.5-0.7 0.1-0.2 0.2-0.2 0.1-0.9 1.3-0.4 0.4-0.4 0.1-1 0.1-1 0.3-0.5 0.4-0.3 0.4-0.2 0.5-0.2 0.6-0.7 0.7-0.1 0.4 0.1 0.7 0.3 0.4 0.9 0.2 0.6 0.5 1.3 0.5 2.6 1.2 0.7 0.5 0.8 0.8 0.4 0.3 0.7 0.1 0.4 0.3 0.3 0.1 0.3-0.1 0.5-0.1 0.5 0 0.2 0 0.2 0.1 0.3 0.3 0.4 0.3 0.2 0.1 0.4 0.3 0.5 0 1.7-0.7 0.2 0 0 0.1 0.3 0.7-0.1 0.4-0.4 0.4-2.5 1.7-2.4 1-4.2 1.2-3.7 2.7-0.6 0.8-0.4 0.4-0.5 0.3-0.3 0.2-0.2 0.6 0 0.5 0.1 0.5 0.1 0.6-0.2 0.5-0.3 0.3-0.4 0.3-1.7 1.8-0.7 1.4-0.4 0.5-1.1 1-0.2 0.2-0.8 1.4-0.1 0.3-0.3 0.5-0.1 0.2 0.1 1.7 0.1 0.4 0.4 1-0.1 0.3-0.1 0.6 0 0.6 0.1 0.2 0.3 0.2 0.2 0.5 0.1 0.6 0.2 0.4 0 0.4 0 1.1 0 0.4 0.3 0.1 0.4-0.1 0.2 0.3-0.5 0.4 0.2 0.6 0 0.5 0.5 0.3 0.7-0.1-0.5 0.5-0.4 0.5-0.2 0.4 0.1 0.5 0 0.4 0.3 0.1 0.1 0.6-0.3 0.1-0.7 0.2-0.4 0.2-0.3 0.3-0.2 1 0 0.7 0 0.4 0.3 0.5 0.2 0.2 0.1 0.1 0.2 0.2-0.1 0.3 0.1 0.2 0.1 0.3 0.2 0.2-0.1 0.2 0 0.2 0.3 0.4 0.3 0 0.2 0.1 0 0.5 0.1 0.3-0.3 0.1-0.1 0.3 0 0.2-0.3 0-0.2 0-0.1 0.2-0.1 0.3-0.2 0.1-0.2 0.1 0.2 0.2 0 0.1-0.2 0.1 0.1 0.1-0.1 0.1-0.2 0-0.2-0.2-0.1 0.1 0 0.2 0.1 0.1 0 0.2-0.2 0-0.1 0.2-0.1 0-0.1 0.2 0.1 0.1 0.2 0.1 0.1 0.1 0 0.2-0.1 0.2-0.1 0.1 0.2 0.2 0.1 0 0.1-0.1 0.1 0 0.3 0.1 0 0.1-0.1 0.2 0 0.1 0.2 0.1 0 0.1-0.2 0.1-0.3-0.1-0.1 0.1-0.1 0.2-0.1 0.2-0.1 0 0-0.2 0-0.3-0.1-0.2-0.2 0-0.3 0 0 0.2-0.2 0-0.1 0-0.2 0 0 0.2 0.1 0.2 0.2 0.2 0 0.1-0.2 0.1-0.2 0-0.2 0.1-0.1 0.2 0.1 0.2 0.2 0.2 0.2 0 0.1 0.2 0.2 0-0.1 0.2-0.2 0.2-0.1 0 0-0.3-0.2 0-0.1 0.1-0.1 0.2 0 0.2-0.1-0.1-0.2-0.1 0-0.3-0.2-0.1-0.1 0.1 0-0.1-0.1-0.1-0.2 0.1-0.3 0.1-0.2 0-0.1 0.2 0 0.2 0.1 0.3-0.3 0-0.1 0.1-0.4 0-0.9 0.5-0.7 0.8-0.4-0.2-1 0.8-0.3 0.4-0.2 0.4-0.2 0.2-0.1 0.3-0.3 0.6 0.1 0.8 0 0.5-0.1 0.4-0.1 0.2-0.3 0.1-0.2 0.2 0 0.6 0.2 0.1-0.1 0.1-0.1 0.3 0.2 0.7 0.4 0.1 0.3 0 0 0.1 0.2 0 0.1 0.1 0.1 0.2 0.3 0 0.3-0.1 0.4 0.1 0.4 0.3 0.5-0.1 0.4 0.5 0.4 0.1 0.3 0.5-0.3 0-0.3 0.4-0.2 0.1-0.1 0.2-0.2 0.1-0.3-0.1-0.2 0.3-0.2 0.2 0.1 0.3 0.3 0.3 0.1 0.4-0.4-0.1-0.2-0.2-0.2 0.3 0.1 0.1 0.3 0.5-0.9 0.5-0.4-0.1-0.4 0.1-0.1 0.5-1-0.8-0.3-0.4-0.7 0.2-0.4 0-0.3 0.3-0.2-0.1 0-0.6-0.3-0.3-0.3 0-0.3 0-0.4 0.1 0 0.5 0.1 0.4-0.5 0-0.5 0.3-0.6-0.2-0.5-0.6-0.6-0.6-0.6 0.1-1.3-0.5-1.2 0.3-0.7-0.2-0.4 0.7-0.8 0.7-0.5 0.5-0.4-0.3-0.3 0-0.4-0.1-0.3 0-0.4 0.1-0.1 0.3-0.4-0.1-0.2 0.3-1.3 0.4-0.6 0.3-0.6 0.7 0 0.6 1 0.3 0.4 0.2-0.4 0.6-2-0.8-0.3-0.1 0 0.8 0.9 0.3 0.4 0.5 0 0.7-0.8 0-2.2 0-2.4 0.4-1.8 0.2-1.2 0.6-0.7 0.6-1 0.8-1.1 1.3-0.7 1.3-0.7 1-0.7 1-0.7 1.2-0.5 0.8-1 1-0.4 0.8-0.3 0.4-0.5 0.3-0.3 0.6-0.2 0.8 0 0.9 0 0.5 0.4 0.3-0.1 0.3-0.1 0.2-0.4 0 0 0.5-0.1 0.3 0 0.2 0.2 0.3-0.1 0.3-0.3 0.2-0.4-0.1-0.6 0.5-0.3 0.3-0.3 0.2-0.4 1.1-0.6 0.5-0.2 0.6-0.5 0.5-0.2 0.5 0.3 0.8-0.5 0.2-0.4 0.8-0.1 0.2-0.7 2.2-0.1 0.8-0.1 0.9 0 1 1 4.7 0.7 2.4 0.5 1.1 2 3.9 1.2 1.2 0.6 0.6 1 0.3 0.6 0.2 0.2 0.3 0.3 0.5 0.8 0.6 0.9 0.2 0.4 0.3 0.3 0.9 0.7 0.6 0.8 1.2 0.2 0.7 0.3 0.1 0.2 0 0.2 0.1 0.2 0.4 0.2 0.1 0.2 0.2 1.9 2.1 1.2 1.9 0.8 0.8 1.8 0.9 0.8 0 0.6 0.5 0.9-0.4 0.4 0.3 0.4-0.1 0.4-0.1 0.5-0.1 0.3 0.2 0.7 0.4 0.3 0.1 1.2-0.1 0.3 0.1 0.2 0.1 1.1 0.2 2.2 0.5 2.4-0.2 1.1-0.5 0.6-0.1 0.5 0.1 1.2 0.9 0.8 0 0.5 0.5 0.2 0.8 0.5 0.5 0.4 0.4 0.2 0.2 1 0.9-0.2 0.6 0.4 1.7 0.3 0.9 0.2 1-0.3 2.1-0.2 3-0.5 1.8-0.6 2-1.2 3.4-0.4 0.2-0.6 0.1-0.5-0.2-1.1-0.1-1.2-0.1-0.6 0.6-0.7 0.9-0.6 0.4-0.5 0.2-1.3 0.7-1.3 0.9-0.5 0.1-1.6 0-0.3 0 1 0.4 0.8-0.1 1.6-0.9 0.5-0.1 1.2-0.4 1.9-1.1 0.6-0.6 1-0.2 0.9 0.1 0.6 0.1 0.3 0.4 0.4 1.6 0.3 1.3 0.5 0.6 0.8 0.2 0.6 0.2-0.6 0.4-0.1 0.4 0.4 0.2 0.3 0.2-0.5 0.1-0.6 0.2-0.5 0.1-0.2-0.6-1.1-0.3-0.5 0.2-0.4 0.7-0.2 0.6 0.5 0.3-0.1 0.7-0.1 0.2-0.2 0.2 0 0.3-0.4 0.3 0.1 0.3 0.5 0.5 0.8 0.2 0.1 0.5-0.4 0.6-0.6 0.1-0.2-0.4-0.4-0.2-0.3 0.3-0.6 0-0.9 0.1-0.6 0.2-0.4 0.2-0.5 0.4-0.2 0.7-0.2 0.5-0.2 0.3-0.8 0.4-0.8 0.3-0.5 1.1-0.8 0.3-0.3 0.4-0.4 0.6-0.4 1.1 0.3 1-0.3 0.1-0.7-0.1-0.7-0.1-0.5 0-0.1 0.2-0.4 0.3 0.1 0.4-0.1 0.7-0.6 0.4-0.9 0.3-0.7 0-1.5 0.3-0.9 0.7-1.2 0.6-0.5 0.6-0.7 0.6-0.6 0.8-0.4 0.3-0.1 0.7-0.1 0.6-0.5 0.2-0.5 0.3-1.5 0.2-1.2 1-1.4 1-0.5 0.5-0.2 1.6-0.8 0.9-0.2 0.8-0.1 0.7-1 0.9-1.5 0.6-1.8 1.2-3.1 3.5-0.4 1-0.3 1.2-0.1 0.7-0.4 0.4-0.4 0.3 0 0.8 0.4 0.2 0.1 0.6-0.3 0.2-0.2 0.1-0.3 0.2-0.2 0.3 0 0.3-0.2 0.3-0.2 0.8-0.5 0.6-0.6 0.2 0.2 0.3 0.2 0.3 0.1 0.3-0.1 0.4-0.3 0.1-0.3 0.3-0.4 0.2 0.3 0.3 0 0.4-0.6 0.6-1.2 0.1 0 0.2 0.4 0.2 0.4 0 1.4 0 0.6-0.6 0.3-1.1 0-0.9 0.3-0.4 0.1-0.9 0.4-0.5 0.1-0.2 0.3 0.2 0.3 0.4 0 0.6 0 1.3-0.9 1.7-0.1 0.5-0.4 2.2-0.5 2.3-0.1 0.9 0 1.4-0.1 0.7-0.1 1.3 0.1 0.5-0.4 3.1-0.7 2.1-0.2 0.8-0.3 0.6-0.1 0.5-0.1 0.1-0.7 1.4-1.3 1.4-1.8 1.5-2 1.4-1.9 0.9-1.8 0.3-1.5-0.1-0.3-0.1-0.2-0.2-0.5-0.9-0.5-0.3-0.4-0.7-0.3-0.7-0.2-0.8-0.4-0.8-0.5-0.7-0.7-0.6-0.4-0.8-0.1-0.7-0.5-1.1-0.5-0.8-1-1.9-0.2-0.6-0.4-0.4-0.5-0.3-0.5-0.2-0.4 0 1.3 0.9 0.3 0.3 0.1 0.5 0.6 1.2 0.7 1.3 0.4 1.4 0 0.8-0.4 0.3-0.7 0.5-0.4 0.2-0.5 0.3-0.6 0.1-0.9-0.2-1.2 0.1-1.5-0.2-0.8 0.6-0.7 0.3-0.6 0-0.8 0.6 0 0.2 0.1 0 0.3 0 0.1 0 0.4 0 1.2-0.1 0.7-0.6 0.5-0.3 0.3-0.1 0.3 0 0.5 0.1 0.7-0.1 1.1 0.3 0.9 0.1 0.7-0.3 0.8-0.4 0.3 0 0.4 0.1 0.1 0.2 0.2 0.6 0.4 0.3 0.3 0.2 0 0.3 0 0.5 0.1 0.7 0.4 0.6 0.6 0.6 0.4 0.3 0.5 0.1 0.4 0.2 0.2 0.4 0.6 0.1 0.3 0.5-0.3 0.7-0.7 0.3-0.4 0.4-0.5 0.3-3.6 1.7-2.5 1.2-0.7-0.1-0.5 0.5 0 0.5-0.7 0.2-0.3 0-0.3-0.1-0.4 0.3-0.1 0.7-0.4 0.3-1 1.4-0.6 0.8-0.3 0.7-0.4 0.9-0.7 1.2-0.3 0.9-0.4 0.6 0 1.4-0.9 2.5-0.4 1.3-0.2 0.7 0.1 0.6 0.3 0.8 0.1 2 0 1.1-0.2 0.8-0.5 0.4-1 0.7-1.1 1.2-1.8 1.5-0.9 1-0.4 1.1 0.6-0.6 1.2-1.1 0.7-0.5 1.3-0.8 0.6-0.4 0.6 0 0.2 0.6 0 0.6 0.3 1.4 0.4 2.5 0.4 1.7 0.1 1 0.3 0.6 0.2 1.4 0.3 1.5 2.1 5.9 0.1 0.8 0.1 0.6-0.2 0.6-0.4 0.4-0.4-0.1-0.4-0.2-0.6 0-0.4 0.3-0.7 0.9-0.4 0.2-0.5 0-0.6-0.2-2.3-1.3-1.5-0.1-0.4 0-0.2 0.1-0.7 0.4-1.1 0.1-0.5 0.2-1 0.8-1 0.4-0.5 0.3 4.6-1.1 0.9-0.1 1 0.1 2.2 0.9 0.9 0.5-0.2 0.6-1.1 0.9 0 0.2 0.4 0 0.4-0.1 1.7-1 0.9-0.8 0.5-0.5 0.6-0.1 0.6 0.3 0.7 0.9 1.3 3.8 1 1.5 1.5 3.7 1.4 3 3.4 5.4 2.6 3.7 0.6 1.1 0.3 0.6-0.2 0.5-0.6 0.6-0.3 0.5-0.2 0.5-0.4 0.2-0.1-0.4 0.1-0.5-0.3-0.6 0-1.3-0.1-0.3-0.5-0.2-1.6-0.4-0.3-0.1-0.7-0.4-0.4-0.2-4.1-0.6-0.8-0.4-3-1.8-4.3-1.4-5.6-0.2-3.7-1.6-3.6-1.5-2.4-1.1-1.7 0-4.7-0.1-4.6-0.1-4.7 0-4.7-0.1-4.7-0.1-4.6 0-4.7-0.1-4.7-0.1-1.6 0-1-0.6 0.1-1.5 0.2-1-0.2-1-0.4-0.8-0.6-0.5-1.3-1.7-1.5-1.3-0.9-0.6-1.9-0.7-0.5-0.3-0.2-0.7-0.2-1.8-0.2-0.6-0.4-0.5-0.5-0.1-0.6 0-0.5-0.1-0.4-0.8 0.5-1 1.5-1.6 0.1-0.2-0.1-0.3 0-0.4 0-0.3 0.1-0.3 0.1-0.2 0.1-0.3 0.2-0.2 0.1-0.6 0-1.9 0-0.7 0.2-0.5 0.9-1.3 0.2-0.4 0-0.5-0.3-0.5-1.6-1.1-0.6-0.7-0.5-1.2 0-0.6 0.2-0.5 0.5-0.8 0.4-0.7 0.3-0.3 0.3-0.2 0.6-0.1 0.3-0.7 0.3-1.5 0.2-2.8-0.2-1.3-0.4-0.8-0.6-0.8-0.5-0.9-0.2-0.6 0-0.4 0.1-0.5 0.8-1.6 0-0.5-0.4-0.3-0.5-0.1-0.8-0.6-2.5-0.6-0.9 0.5-1.4 1.6-1 0.1-0.4-0.3-1-1.1-0.5-0.3-0.4 0.1-2.6 1.5-0.8 0.7-1.4 1.6-0.9 0.7-0.9 0.4-0.9 0-0.8-0.6-0.2-1.1 0-1.3-0.1-1.2-0.2-0.5-0.9-1.2-0.3-0.5-0.1-0.5 0-1.9-0.2-1.8-0.1-0.6 0.1-1.3 0-0.7-0.2-1-0.4-1.1-0.4-1-0.5-0.8-0.4-0.4-0.8-0.5-2.6-2.4-0.3-0.9 0.3-1 1-2 0-0.4-0.1-0.6-0.3-0.4-1.1-1-0.4-0.5 0.1-0.4 0.3-0.3 0.2-0.5 0.1-0.6 0-0.4 0.1-0.5 1.1-1.1 0.4-0.8-0.1-0.9 5.6-2.5 1.3-2 1.5-2.1 0.1-2.5-0.6-1.7-0.7-0.9 0.2-2.6 0.2-1.2 0-0.2-1.3-0.3-0.2-0.2-0.2-0.4-0.1-0.8 0.3-0.8 1.3-1.7 0.2-0.4 0.1-0.4 0-0.5 0.1-0.4 0.2-0.7 1.3-1.9 0.2-0.3 0.8-0.8 1-0.4 2-0.2 0.9-0.4 0.8-0.6 1.5-1.6 1.1-1.4 0.5-0.9 0.2-0.9 0.1-1.2-0.1-3.4-0.5-1.7-0.2-1.6 0.8-1.8 0.8-0.6 0.9-0.5 1.3-0.5 0.3-0.3 0.6-0.8 0.3-0.5 0.1-0.1 0.2-0.1 0.3 0 0.6 0.2 0.3 0 0.2-0.5-0.2-0.5-0.3-0.6-0.2-0.4 0.1-0.5 0.2-1.2 0.1-0.6-0.5-3.7-0.2-0.7-0.7-0.2-0.3-0.2-0.1-0.2-0.1-0.2 0-0.3-0.1-0.3-0.3-0.4-0.4-0.2-0.4-0.1-0.4-0.2-0.7-0.7-0.5-0.8-0.2-1 0.4-1 0.5-0.9 0.5-2.2 0.4-1 2-3.5 0.2-0.5 0.1-0.5 0.1-0.5 0.1-0.6 0.4-1.7-0.1-0.4-0.3-0.3-0.4-0.2-0.3-0.2 0.2-0.7 0.3-0.5 0.4-0.3 0.8-0.3 0.5-0.1 1.1 0.2 0.5-0.1 0.3-0.3 0.6-0.8 1.8-2.1 0.4-0.8 0.2-0.5-0.1-0.3-0.1-0.3-0.1-0.5-0.1-0.5 0.1-0.4 0.2-0.2 0.5 0 1.3 0.9 0.7 0.2 0.6-0.3 0.4-0.8 0-0.9-0.2-0.8-0.4-0.6-0.6-0.5-1.3-0.8-0.4-0.5 0.1-0.6 1.3-0.9 0.4-0.4-0.2-0.5-0.7-0.6-0.2-0.5 0-0.4 0.3-1.8 0.1-0.2 0.2-0.2 0.1-0.2 0-0.3-0.1-0.2-0.1-0.2-0.1-0.2 0-0.3 0.3-0.5 0.6-0.1 1.1 0 0.4-0.2 0.3-0.3 0.6-0.8 0.3-0.4 1.2-0.7 0.7-0.8 0.1-0.9-0.3-2.2 0-0.5 0.2-0.5 0.1-0.5-0.1-0.5-1.4-3.8-0.2-1.1 0-1.2 0.1-1.3-0.1-0.9-0.4-0.6-1.3-0.8-1-1-0.2-0.1-0.2-0.1-0.1-0.1 0.1-0.3 0.2-0.2 0.2-0.1 1.6-0.2 0.5-0.2 0.4-0.2 0.3-0.4 0.5-0.9 0.2-0.4 1.5-1.7 0.8-0.9-0.2-1.1-0.4-0.8-0.5-0.6-0.7-0.5-0.9-0.3-0.3-0.3-0.2-0.5 0.1-0.5 0.2-0.4 0.1-0.4-0.3-0.6-0.6-0.5-0.2-0.3 0-0.5 0-0.2 0.4-0.6 0-0.2 0-0.2-0.1-0.2 0-0.2 0-0.5 0.1-0.3 0.3-0.8 0.2-0.1 0.1-0.2 0.1-0.1 0.1-0.2-0.1-0.3-0.3-0.3-0.1-0.1 0.4-0.7 0.7-0.5 0.9-0.2 0.6-0.1 1.7 0.1 0.7-0.2 0.8-0.6 0.2-0.4-0.1-0.5-0.4-0.8-0.2-0.6 0.1-0.3 2-0.9 0.4-0.2 0.3-0.4 0.5-0.8 0.4-0.3 0.4-0.6-0.1-1-0.4-1-0.5-0.7-0.7-0.7-1.1-0.8-0.8-1-0.2-0.4-0.4-1.3-0.8-1.8-0.7-0.8-0.7-0.1-0.8 0.1-0.9-0.1-0.3-0.3-0.5-0.7-0.4-0.2-0.4-0.2-0.5 0.1-0.5 0.2-0.4 0.2-0.8 0.1-0.9-0.4-0.8-0.5-0.8-0.3-0.9 0-0.4-0.1-0.2-0.5 0.1-0.9 0-0.5-0.3-1.6 0.3-0.6 0.6-0.2 0.8 0.3 0.4 0.2 2.8 0.5 0.5 0 0.3-0.3 0.3-0.4 0.3-0.2 0.5-0.1 0.5 0.1 1.4 0.6 0.8 0 1.9-0.8 0.9-0.3 0.8 0.3 1.6 1.2 0.9 0.3 0.8-0.2 0.7-0.6 0.6-0.8 0.1-1.1-0.2-1.1 0-0.4 0.1-0.6 0.5-0.9 0.3-0.5 0.2-0.2 0.4 0 0.4-0.1 0.4-0.3 0.2-0.6-0.1-0.5-0.1-0.3-0.3-0.3-0.2-0.4-0.2-0.5 0-0.4-0.2-0.4-0.3-0.4-0.5-0.3-0.5-0.1-1.1-0.1-3.1-0.6-4.2 0-1.1-0.2-0.9 0-0.9 0.3-0.8 0-0.8-0.8-0.1-0.5 0.3-0.3 0.5-0.2 0.3-0.2 0.1-0.6-0.1-0.4-0.3-0.4-0.1-0.5 0-0.5 0.5-0.9 0-0.5-0.1-0.5-0.7-1.2-0.3-1.1 0.5-0.4 0.8-0.2 0.7-0.6 0.3-0.6 1.6-2.4 0.2-0.6 0-0.4-1.1-1.9-0.3-0.4-0.2-0.1-0.4-0.2-0.1-0.2 0-0.3 0-0.3 0.1-0.2 0.1-0.2-0.1-0.7-0.1 0-0.3 0.2-0.4 0.1-0.4-0.2-0.1-0.4 0.1-0.6 0.2-0.4 0.4-0.2 0.9-0.3 0.4-0.3 0.3-0.3 0.1-0.4-0.1-1.7-0.1-0.3-0.2-0.2-0.9-0.7-0.1-0.1-0.1-0.2-0.1-0.1-0.2-0.2-0.2-0.2-0.5 0-0.5 0-0.5-0.1-0.2-0.4 0.1-0.2 0.4-0.5 0-0.1 0-0.6-0.2-0.4-0.4-0.3-0.4-0.1-0.2 0.1-0.2 0.1-0.2 0-0.2-0.1-0.2-0.2 0.1-0.2 0.2-0.1 0.1-0.2-0.1-0.8 0-0.2 0.1-0.3 0.2-0.1 0.1-0.1 0.2-0.2 0.1-0.2 0-0.9 0.1-0.2 0.3-0.1 0.5 0 0.8-0.4 0.4-0.1 0.9 0.2 0.2-0.4 0.1-0.5 0-0.5-0.1-0.2-0.1-0.5 0-0.2 0-0.3 0.2-0.5 0.1-0.2-0.2-0.5-0.4-0.4-1.9-0.8-3-0.3-1-0.5-0.8-0.7-0.7-1-0.4-1.3 0.1-1 0.5-1.8 0.1-1-0.1-4.1-0.1-0.4-0.3-1-0.1-0.4 0.2-0.6 0-0.3 0-0.2-0.2-0.4-0.1-0.2 0.1-1 0.4-0.8 0.7-0.5 1-0.6 0.1-0.3-0.2-0.3-0.6-1 0-0.3 0.3-1.5-0.2-0.6-1-1-0.3-0.7 0.2-0.7 0.4-0.6 0.6-0.6 0.4-0.6 0.1-0.8 0.2-0.7 0.7-0.6 0.6 0.1 0.4 0.5 0.2 0.6 0.6 0.3 0.2-0.1 0.2-0.3 0.2-0.3 0.2-0.2 0.2-0.1 1.5-0.3 0.6-0.3 0.5-0.4 0.2-0.6 0-1.4-0.1-0.3-0.4-0.4-0.1-0.2-0.3-0.4 0-0.4 0.1-0.4 0-0.5-0.4-2-0.4-0.8-0.5-0.7-0.4-0.8 0-1-0.2-0.9-1.2-1.8 0-0.8 0.3-0.4 0.7-0.4 0.3-0.3 0.2-0.4-0.1-0.4-0.2-0.3-0.3-0.4-0.1-0.5 0-0.3 0.1-0.8 0.1-0.6 0-0.4-0.1-0.3-0.2-0.5-0.2-1.1 0-0.8 0.5-1.9 0.1-0.5-0.1-0.5-0.2-0.9 0-0.5 0.1-0.2 0.2-0.2 0.2-0.5 0-0.9 0.2-1 0-0.6-0.3-1 0-0.3 0-0.3 0.4-1.1 0-0.6-0.2-0.7-0.3-0.4-0.8-1.3-0.2-0.6-0.7-2.9 0.1-0.3 1.6-1.7 0.4-0.9 0.1-1 0-0.2-0.2-0.3-0.1-0.3 0.1-0.2 0.4-0.7 0.7-2.5 0.2-0.3 0.2-0.1 0.9 0.3 0.3 0 0.2-0.2 0.8-2 0.1-0.4 0-0.3 0-0.3-0.1-0.2-0.1-0.2-0.3-0.2-0.1 0-0.3 0.1-0.1 0.1 0 0.2-0.1 0.1-0.3-0.1-0.1-0.1-0.5-0.7-0.6-0.7-0.3-0.4-0.2-0.4 0.1-0.2 0.1-0.4 0.1-0.1-0.1-0.3 0-0.3 0.1-0.8 0.1-0.3 0.1-0.2-0.1-0.2-0.2-0.2 0-0.2 0.3-0.4 0.7 0 0.9 0.4 0.8 0.2 0.3-1.1-0.1-0.3-0.1-0.5-0.1-0.3 0.1-0.3 0.1-0.1 0.2-0.1 0.1-0.2 0.7-1.7 0.2-0.6-0.1-0.4-0.3-0.3-0.7-0.6-0.2-0.3-0.1-0.4 0-0.6-0.1-0.6-0.4-1.1-0.1-0.6 0.1-0.5 0.2-0.5 0.1-0.4-0.4-0.8-0.1-0.6 0.1-0.6 0.2-0.5 0.3-0.4 0.3 0 0.7 0.9 0.2 0.2 0.3 0.2 0.3 0.1 0.5-0.1 0.5-0.1 0.4 0.1 0.3 0 0.4-0.4 0.1-0.9-0.9-0.9 0.5-0.9 0.3-0.3 0.4-0.7 0.2-0.4 0.2-0.4-0.3-0.8 0-0.5 0.3-0.5 0.5-0.3 0.4-0.3 0.2-0.7 0.2-2.2-0.3-3.6-0.3-2 0-0.7 0.3-1.7 0.3-0.7 0.6-0.6 1.9-1 0.5-0.4 0.3-0.4 0.1-0.2 0.2-0.1 1.5-0.2 0.4-0.2 1.2-0.9 0.6-0.3 0.8 0 0.9 0.1 0.4-0.1 0.3-0.3 0.3-0.6 0.2-0.2 0.6-0.3 0.1-0.1 0-0.2-0.1-0.2-0.1-0.2 0-0.2 0-0.3 0-0.2 0.2-0.4 0.5-0.7 0.2-0.4 0.1-0.5-0.3-1-0.6-0.7-0.8-0.5-0.7-0.6-0.5-0.9-0.9-4.3 0-0.8 0-0.8 0.2-0.9 0-0.1 0-0.1-0.1-0.5-0.2-0.5 0-0.5 0.3-0.4 0-0.2 0-0.1 0-0.2 0-0.1-0.6-0.8-0.2-0.4-0.1-0.6-0.2-0.5-0.5-1-0.2-1.1-0.8-1.6-1-3.4-0.2-1.2 0-0.6 0.2-0.3 0.2-0.3 0.3-0.4 0.5-0.3 0.1-0.1 0-0.3-0.2-0.5-0.1-0.3 0.2-0.5 0.3-1 0-0.5-0.1-0.6-0.2-0.5-0.7-0.9-0.5-1.2-0.3-0.7 0-0.6 0.2-0.5 0.8-1 0.3-0.6 0-0.5-0.1-0.5 0-0.5 0.2-0.6 0.3-0.3 0.7-0.5-0.7-0.6-0.3-0.4-0.2-1.3-0.1-0.3-0.7-0.4-0.4-0.4 0.1 0 0.4 0.1 0.4 0 0.4-0.2 0.2-0.4-0.1-0.4-0.6-0.4 0-0.2 0.1-0.2 0-0.2 0.1-0.2 0-0.1 0-0.1-0.1-0.3-0.2-0.1-0.2-0.1-0.2-0.1-0.1-0.3 0-0.2 0.2-0.2 0.1-0.2 0.1-0.2 0.5-1.4 0.1-0.5 0-1 0.1-0.4 0.3-0.3 0.4 0 0.4 0.3 0.4 0.2 0.3-0.2 0-0.4-0.3-1.8 0.1-1 0.1-1.1 0.4-1 0.3-0.1 0.4 0 0.4 0.1 0.4 0.1 0.4-0.1 0.3-0.3 0.3-0.4 0.1-0.9 0.2-0.4 0.4-0.1 0.4 0.1 0.8 0.4 0.2 0.1 0.1 0.1 0.2 0.1 1.8-0.5 0.2-0.3 0-0.6-0.1-0.3-0.3-0.5-0.1-0.3 0.1-0.3 0.3-0.6 0.1-0.2-0.1-0.2 0-0.3 0.1-0.2 0.1-0.1 0.2-0.1 0.4-0.1 0.3-0.2 0.8-1.1 0.1 0 0.2-0.1 0.1-0.1 0-0.2 0.1-0.3 0-0.2 0.2-0.5 0.2-0.1 0.2-0.1 0.5 0 1 0.6 0.5 0 0.4-0.3 0.4-0.4 0.1-0.2 0.1-0.3 0.3-0.9 0.1-0.2 0.4-0.4 0.1-0.3 0-0.4-0.7-1.6 0.1-0.3 0.1-0.5 0.1-0.1 0.2-0.2 0.1-0.1 0.1-0.2-0.2-0.2-0.4 0-0.2-0.1 0-0.9 1.3-1.3-0.1-0.9-0.3-0.5-0.9-2.6-0.1-0.4 0.3-0.9 0-0.5-0.2-1.1 0.2-1-0.1-0.4-0.3-0.3-0.3-0.5-0.5-1.6-0.1-0.4 0.3-0.2 0.4-0.2 0.2-0.2-0.2-0.6-0.7-0.5-1-0.1-0.8-0.3-0.4-1 0.8-1.3 3.2-1 0.4-1.8-0.1-1.8 0.4-1.8 1.6-3.9-0.1-0.3-0.3-0.3-0.3-0.3-0.2-0.5 0.2-0.1 0.3-0.1 0.4-0.2 0.5-0.8 0.2-2 0.3-0.8 0.4-0.4 0.8-0.8 0.4-0.5 0.4-1.2 0.3-0.6 1-0.8 0.2-0.5 0-0.5-0.1-0.8 0-0.7 0.1-0.6 0.2-0.2 0.2-0.2 1-0.2 0.5 0.1 0.4 0.1 0.7 0.2 0.1-0.1 0.1-0.1 0-0.2 1.5-0.6 0-0.2-0.1-0.6-0.5-1-0.2-0.4-0.1-0.4 0-0.2 0.1-0.2 0.1-0.4 0.2-1.9 0-1.2-0.2-0.6-0.4-0.1-0.3 0.1-0.2-0.1 0-0.7 0.2-1 0-0.4-0.3-1.9 0-0.6 0.1-0.3 0.7-0.5 0.3-0.3 0-0.4-0.6-0.8-0.1-0.4 0-0.5 0.4-1.4 0-0.3-0.1-0.2 0-0.2 0.1-0.3 0.1-0.1 0.4-0.1 0.2-0.1 0.1-0.3 0-1.2 0.1-0.4 0.2-0.4 0.6-0.7 0.1-0.3 0-0.5-0.4-0.9-0.1-1.4-0.5-0.6-0.7-0.4-0.7-0.2-0.8 0.1-0.9 1.3-0.5 0.1-0.7-1.5-0.2-0.4-0.7-0.5-0.3-0.4-0.2-0.4 0-0.5 0.4-1.5-0.1-0.5-0.2-0.4-0.1-0.4 0.2-0.5 0.3-0.2 0.6-0.2 0.3-0.2 0.2-0.4 0.2-1 0.1-0.5 0.4-0.7 0-0.3-0.3-0.2-0.5-0.2-0.3-0.2-0.7-0.7-1.1-1.3-0.3-0.8-0.5-2.6-0.1-0.6 0.1-0.5 0.1-0.2 0.1-0.1 0.5-0.1 0.1 0-0.4-0.7 0-0.4 0-0.5 0-0.5-0.3-0.5-0.3-0.3-0.8-0.4-0.4-0.8 0.1-1.8-0.3-0.4-0.3-0.4-0.5-0.2-0.3 0-0.3-0.2-0.1-0.6 0-0.2 0-0.5 0-0.2-0.1-0.3-0.2-0.5-0.1-0.3 0.1-0.2 0.1-0.4 0.1-0.3-0.1-0.1-0.4-0.3-0.1-0.2 0.1-0.5-0.1-0.2-0.1-0.2-0.4-0.4-0.1-0.2 0.1-0.3 0.3-0.2 0.4 0 0.9 0.4 0.5 0 0.2-0.3 0.2-0.9 0.2-0.3 0.2-0.3 0.1-0.3-0.1-0.5-0.2-0.4-0.4-0.5-0.4-0.3-0.4-0.3-0.9-0.1-0.8 0-0.7-0.2-0.7-0.7-0.2-0.5-0.2-0.5-0.1-0.6 0-1-0.2-0.4-0.6-0.8-1.1-2.2-0.2-0.6-0.1-0.5 0.3-1 0-0.9 0-0.9 0.1-0.5 0.3-0.7 0.1-0.5-0.1-0.5-0.2-0.5 0-0.4 0.5-1 0.1-0.4-0.1-0.9 0.1-0.5 0.1-0.4 1.2-1.8 0.2-0.2 0.4 0.2 0.2 0.5 0.1 0.5 0.2 0.3 0.3 0 0.4-0.3 0.2-0.4 0.2-0.7 0.2-0.5 0.5-0.8 0.3-0.2 0.9 0.2 0.3-0.1 0-0.3-0.3-0.3-0.6-0.6-0.3-0.4-0.2-0.3-0.1-0.5 0.4-3.3 0.3-0.8 0.1-0.2 0.4-0.5 0.1-0.3 0-0.2-0.1-0.3 0-0.3 0.1-0.5 0.1-0.3 0.4-0.8 0.3-0.8 0.4-1.9 0.4-0.6 0.4-0.3 0.3-0.1 0.3-0.3 0.1-0.5-0.1-0.5-0.5-0.9 0-0.4 0.6-0.2 1.7 0.8 0.7 0.2 0.7-0.2 0.6-0.3 0.6-0.5 0.5-0.6 0.2-0.4 0.1-0.5 0-0.9 0.1-0.4 0.1-0.2 0.1-0.2 0.1-0.2 0.5-0.2 0.1-0.1 0.3-0.9-0.3-0.9-0.6-0.6-0.8-0.3-0.8 0.1-0.3-0.1-0.2-0.4 0.1-0.3 0.7-1.1 0.3-0.9 0.1-0.9 0.1-3.2-0.2-2 0-0.1-0.2-0.3-0.5-0.4-0.2-0.5 0-0.5 0-0.7 0.1-0.8-0.5-2.2-0.1-0.3-0.1-0.3-0.2-0.2-0.2-1.2-0.2-0.4-0.1-0.3-0.2-0.3 0-0.4 0.1-1.2 0.2-0.4 0.4-0.3 0.2-0.1 0.2-0.1 0.2-0.2 0.1-0.2 0-0.2-0.3-0.3 0-0.1 0.1-0.2 0.1 0 0.1-0.1 0.3-0.3 0.6-0.3 0.2-0.2 0.2-0.3 0-0.2 0-0.1 0.4-0.2 1-0.1 0.5-0.3 0.4-0.5 0.1-0.5 0-0.6-0.1-1.2-0.1-0.5 0-0.5 0.1-0.4 0.1-0.5 0.2-0.3 0.3-0.4 0.1-0.2 0-0.1 0-0.2 0.1-0.3 0.6-1 0-0.5 0-0.5-0.3-1-0.1-0.5 0-0.8 0.3-0.8 0.4-0.7 0.4-0.6 0.2-0.1 0.1-0.1 0.2-0.1 0-0.2 0.1-2.5 0.4-1.4 0.9-1 1.1-0.9 0.9-1.2 0.2-0.4 0.3-1.2 0.2-0.3 0.5 0.2 0.4 0.3 0.3 0.1 0.2-0.2 0.4-1 0.5-0.7 0.8-1.8 0.4-0.4 0-0.2-0.1-0.1 0-0.2 0.2-0.4 0.3-0.2 0.3-0.2 1.2-0.3 0.6-0.4 0.3-0.7 0.8-3.5 0.2-0.9 0.2-0.3 0.2-0.1 0.5-0.3 0.1-0.2 0-0.3-0.2-0.3-0.1-0.3 0-0.4 0.1-0.3 0.5-0.4 0.2-0.3 0.5-1.1 0.2-0.6 0.1-0.6-0.1-0.3 0-0.3 0-0.3 0.2-0.3 0.3-0.2 0.8-0.4 0.3-0.3 0.2-0.3 1-2.4 0.1-0.3 0-1 0-0.4 0.2-0.5 0.9-1.5 0.3-0.3 0.2-0.2 0.8-0.2 0.9 0.1 0.8 0.4 0.7 0.6 0.8 0.3 0.5 0 0.2-0.4 0.1-0.4 0.3-0.5 0.3-0.4 0.5-0.3 0.5-0.2 1-0.1 0.5-0.1 0.9-0.4 0.2 0 0.6 0 0.2 0 0-0.2 0-0.5 0-0.3 0.1-0.5 0.4-0.8 0.1-0.4-0.1-0.7-0.3-0.6-3.9-5.6-0.7-1-0.6-0.9-0.3-0.9-0.2-1.2 0-1.8 0.2-1 0.2-0.8 0.6-0.8 2.6-2 0.3-0.8-0.2-1.2-1.5-5.9-0.2-1.9-0.2-0.6-0.3-0.6-0.4-0.4-0.4-0.5 0-0.7 0-0.6-0.2-0.5 0.3-0.3-0.2-0.5-0.8-0.9-0.1-0.4 0-0.5 0.1-0.8 1-3.4 0.8-2.4 0.4-0.6 0.1-0.1 0.4-0.2 0.3 0 0.4 0.1 0.4 0 0.5-0.1 0.4-0.2 0.2-0.3 0-0.5-0.4-0.6-0.7-0.6-0.5-0.6 0.1-0.9 0.1-0.2-0.1-0.2-0.1-0.1-0.1-0.2-0.1-0.1-0.2-0.2-0.1-0.1 0-0.1 0-0.1 0.1-0.1-0.2-0.3-0.1-0.2-0.2-0.1-0.4 0-0.2-0.1-0.5-0.3-0.2-0.2-0.1-0.2-0.4-1.2-0.1-0.4 0.2-0.5 1-2.1 0.3-0.8 0-0.3 0.1-0.4 0.2-0.2 0.2-0.1 0.4 0.6 0.3 0.1 0.1-0.4 0.2-0.7 0.8-1.8 0.4-0.2 0.3 0 0.4 0.2 0.4-0.1 0.2-0.2 0.8-1.3 0.2-0.6 0.1-0.2 0.4-0.2 0.7-0.3 1-0.5 1-0.4 1.1-0.4 1-0.5 2.6-1.1 2.6-1.2 2.6-1.2 2.6-1.1 0.2-0.1 0.4-0.2 0.4-0.1 0.2-0.1 0.8-0.3 1-0.6 0.5-0.7 0.4-1.5 0.7-2.2 0.7-2.3 0.1-0.3 1.5-4.8 1.4-4.8 1.5-4.7 0.3-1.3 0.1-0.7-3.7-4z m-30.2 880l0.2-1.2 0-2 0.2 0.3 0.5 0.9 0.2 0.4 0.4 0.4 0.2 0.3 0.1 0.6-0.4 0.2-1.4 0.1z m0.2-3.7l0.1-9.7 0-9.5 0-9.5 0.1-9.4 0-9.3 0-9.3 0.1-9.2 0-9.2 0.7 0.5 0.2 0.3 0.4 1.1 0.2 0.3 1.3 2 1.4 2.5 0.3 0.5 1.4 1.3 0.7 0.8 0.5 1.1 0.4 1.3 0.8 3.7 0 0.5-0.1 0.6-0.2-0.4-0.2-0.7-0.6-2.5-0.5-0.3-0.4 0.1-0.5 0.2-0.7 0.5-0.6 0.6-1 1.3-1.3 1.2-0.7 1.6-0.2 1.2 0.3 1.3 0.9 1 1.2 1.1 0.8 0 1 0.3 1.4 0.4 2.2-0.2 1.6 1.1 0.4 1.1 0.3 0.6-0.1 1.2 0.1 0.3 0.2 0.7 0.3 1.6 0.1 0.7 1.2 2.3 0.2 0.4 3.9 4.4 1.4 1.1 0.5 0.6 0.1 0.5-0.2 0.5 0.5 0 0.5-0.1 0.6 0.4 1.5 0.8 0.2 0.4-0.6 0.2-0.2 0.6 0.1 0.8 0.2 0.6 5.7 5.1 3.2 2.5 2.4 1.1 1.3 0.9 0.4 0.7 0.8 0.4 2.9 1.3 1.3 1.4 1 2.1 2.1 2 0.5 0.9 0.7 0.4 0.3 0.9 0.7 0.3 0.6 0.1 0.8 0.3 1.9 1.2 7.1 3.6 0.3 0.1 0.6 0.1 0.2 0.1 0.8 0.6 0.2 0.1 1.6 0.1 1.4 0.4 5-0.8 1 0.2 0.6 0 1.5-0.7 3.1 0.5 0.3 0.3-0.2 0.5-0.3 0.5-0.4 0.2-0.2 0.3-0.6 1.9 0.1 0.2 0.1 0.4 0.1 0.2-0.7 0.7-0.2 0.2 0.1 0.4 0.1 0.4 0 0.3-0.4 0.3-0.7 0.6-0.2 0.2-0.5 2.3-0.3 0.2-0.3 0.2-0.2 0.1-0.5-0.1-0.1-0.3 0.1-0.4-0.2-0.5-0.5-0.3-0.7 0-0.5 0.4 0.2 0.7-0.5 0.6-1.7-0.1-0.7 0.2-0.2 0.3-0.1 0.4-0.1 0.3-0.3 0.2-0.4 0.1-0.3 0-0.3-0.3-0.3-0.5 0-0.2 0.1-0.5-0.1-0.3 0-0.2-0.1-0.2-0.3-0.1-0.4 0-0.4 0-0.8 0.3-1.4-0.5-0.5 0.4-1.4-0.4-0.4 0.3 0.3 0.6 0.5 0.5-0.4 0.6-0.5 0.6-1.4 0.4-1.2 0.4-1.6-0.1-2.5 0.1-1.2 0.4 0.1 0.6-0.1 0.5-1.1 0.3-0.5 0.2-1.8 0-1.9-0.7-0.6-0.4-0.5-0.5-0.3-0.5-0.3-0.4-1.9-1.4-0.6-0.2-2.3-0.3-1.8-0.9-6.3-0.4-4.3-0.7-2.6 0.3-5.5-0.7-3-0.6-0.9-0.8-2-0.2-1.1-0.7-0.6-0.2-0.3 0.3 0.1 0.8-0.1 0.3-0.3 0.4-4 0.3-0.5-0.1-0.4-0.3-0.6-1-0.9-1-0.1 0z m98.5-2l0.4 0.2 0.5-0.4 0.4-0.3 0.3 0.5-0.5 0.4-0.2 0.2-0.1 0.3-0.3 0.7-0.1 0.3-0.3 0.1-0.4 0.1-0.3 0.1-1 0.9-0.3 0-0.2-0.1 0.1-0.4 0.4-0.8 0-0.2-0.1-0.5-0.2-0.1-0.3 0.3-0.3 0.3-0.3 0.3-0.3 0.1-0.7 0-0.1-0.1-0.1 0-0.3 0.1-0.1 0.2 0 0.2-0.1 0.2 0 0.1-0.5 0.3-2 0.3-0.1 0.4-0.3 0.2-0.3-0.1-0.2-0.3 0-0.4 0.1-0.5 0.3-0.9-0.4 0.1-0.2 0-0.1 0.2-0.3-0.3-0.3 0.1-0.4 0.4-1.2 0.8-0.2 0.2-0.4 0.5-0.2 0.2-0.3 0.2-0.4 0.1-0.7 0 0-0.1 0.1-0.1 0-0.2 0.1-0.1 0-0.2-0.2 0-0.2 0-0.2 0.2-0.2 0.2 0.1 0.1 0.2 0.2-0.3 0.3-1 0.5-0.2 0.3-0.3 0.6-0.2 0.3-0.4 0.1-1 0-0.3-0.1-0.1-0.3 0.1-0.3 0.2-0.3 0.2-0.3-1.8-1.3 0.1-0.7 0.4-0.4 0.5-0.3 0.2-0.4 0.3-0.4 0.6 0.3 1.1 0.7 0.4-0.1 1.2-0.5 0.4-0.4-1.1-1.2-0.2-0.5 0.5-0.3 0.2 0.2 0.5 0.8 0.3 0.3 0.7 0.2 0.2-0.1 0.4-0.3 0.2-0.1 0.1 0 0.2 0 0.2 0.2 0.1 0.5 0 0.5 0.1 0.2 0.1 0.1 0.3-0.1 0-0.1-0.1-0.3 0-0.2 0-0.6 0-0.5 0-0.5 0.2-0.5 0.2 0 0.3 0.3 0.4 0.3 0.3-0.3 0.1 0.2 0.1 0.1 0.1 0 0.2 0 0.2 0.1 0.7-0.1 0.3 0 0.3 0.3 0.2 0.3 0.3 0.3 0.2 0 0.2-0.4-0.1-0.4 0-0.2 0.3-0.2 0.1 0.1 0.3 0.4 0.2 0 0.2-0.1 0.1-0.2 0.2-0.2 0.2 0 0.2 0.2 0.2 0.8 0.2 0.3 0.3-0.1 0.6-0.5 2.3-0.7 0.6 0.3-0.1 0.2z m41-477.8l0.1-0.1 0.2 0.2 0.3 0.5 0.4 1.3 0 0.4-0.2 0.4-0.4 0.1-0.5-0.2-0.2-0.3-0.4-0.3-1.3-0.5-0.5-0.3-0.3-0.3-0.9-1.3-0.2-0.5 0-0.4 0.4-0.1 0.7 0.4 2.1 0.5 0.4 0.7 0.1 0.2 0.1 0 0.1-0.1 0-0.3z m-3.7-3l-0.3 0.3-0.4-0.1-0.2-0.3 0.2-0.5 1.7 0.1 0.7 0.2 0.7 0.5 0.1 0.4-0.2 0.3-0.3 0.1-0.4 0-0.4-0.1-1.2-0.9z m-1.4 36.3l0.5 0.1 0.7 0 0.6 0.6 0.4 0.8 0.4 0.7-0.2 0.8-0.6 0.8-0.4 0.8-0.5 0.6-0.5 0-0.5-0.2 0.1-0.8-0.2-0.5-0.6 0.4-0.6 0-0.3-0.4 0.3-0.5 0.5-0.8 0.1-1 0.4-1.4 0.4 0z m0.7-6.6l0.4 0 0.6 0.2 0.7 0.2 0.5 0.8-0.1 1.2 0 1.5 0.1 1.5-0.1 0.4-0.2-0.6-0.3-0.7-0.5-0.6-0.9-1.5-0.5-1 0.3-1.4z" id="AR" name="Argentina">
  </path>
 </g>
 <g id="points">
  <circle class="-53.388761971521205|-72.57718028310788" cx="314.4" cy="895.6" id="0">
  </circle>
  <circle class="-40.0827306949665|-62.621586389000726" cx="520.6" cy="490.5" id="1">
  </circle>
  <circle class="-23.450191599273108|-54.657111273715" cx="685.6" cy="82.8" id="2">
  </circle>
 </g>
 <g id="label_points">
  <circle class="Argentina" cx="488.5" cy="320.1" id="AR">
  </circle>
 </g>
</svg>