<svg width="408" height="80" viewBox="0 0 408 80" fill="none" xmlns="http://www.w3.org/2000/svg">
<path d="M36.798 12.8995C37.3088 11.6051 36.8766 8.98161 35.2067 10.2313C35.0421 10.8325 35.2312 11.635 34.7278 12.1964C34.1335 12.9865 32.8246 13.0535 32.3997 14.0572C31.8202 14.8572 31.3511 13.4088 30.6168 14.2038C28.6719 14.3902 28.0997 13.3641 26.2014 13.5628C26.5231 12.7306 27.6405 10.8052 28.5786 9.59277C28.2593 8.32324 26.1891 8.08971 25.0226 7.22016C24.0452 5.76679 21.7074 6.07734 20.8847 4.64384C17.2747 1.49858 18.2889 1.38181 18.0753 1.42405C17.2256 0.465068 15.9167 -0.193299 14.7281 0.484943C14.2836 1.02406 14.4751 2.05509 13.8465 2.42526C13.1318 -0.536147 12.2748 1.01909 10.293 0.325941C9.70359 -0.0988921 9.48012 -0.225597 9.29594 0.676242C8.63779 0.765681 8.43151 1.30728 7.90106 1.64516C6.39568 3.05133 8.79496 5.41649 5.54353 6.11957C4.51212 6.47981 4.2518 7.43382 4.80926 8.12449C4.34267 7.804 4.48265 8.97415 4.37214 9.1903C4.74787 9.12322 5.09659 10.5418 4.83628 10.666C4.12902 11.2673 5.08676 11.7343 5.11869 12.3455C4.21006 12.8126 4.06025 13.4535 3.70171 14.4423C2.56961 15.7193 1.93848 17.6199 2.46155 19.3267C2.49348 20.462 1.66098 20.8347 1.59713 21.9949C1.59222 22.8371 1.04949 22.6732 1.04704 23.4731C1.47434 25.0085 2.31912 26.3103 2.631 28.1239C3.00673 27.7562 3.47087 27.6743 2.98954 28.4444C2.71204 28.7997 2.96007 29.3512 3.05339 29.7711C1.82551 31.6866 2.17178 34.2753 2.17178 35.6591C1.85744 34.7026 1.68799 35.9001 1.16491 36.0293C0.501858 37.5324 0.887412 39.1547 1.40558 40.6727C2.437 41.6615 0.764624 41.9919 0.985643 42.8267C1.36137 43.4651 0.695863 43.9993 0.592721 44.5533C0.980731 45.2887 0.177698 45.4253 0.661482 45.9868C0.352057 47.2862 0.334866 47.5893 0.33241 48.9606C0.433097 49.7358 1.77394 49.7482 0.609911 50.1258C0.521504 50.4786 0.84812 50.8438 0.408539 51.0451C0.440464 51.5668 0.607456 51.8227 1.04213 51.9842C0.467477 52.7891 1.55783 53.2537 1.27297 54.0388C1.3319 54.2499 0.990554 55.7232 1.47188 55.3157C1.53573 55.1816 1.6929 55.0698 1.78131 55.2437C3.16636 55.0971 1.88691 56.3691 1.12317 55.9368C0.781815 56.1604 1.44978 56.3915 1.29507 56.7443C1.65115 56.8213 2.18897 56.7343 2.32403 57.2337C1.99987 57.9219 1.43014 58.071 1.82797 58.7865C1.4154 58.5703 1.58976 59.0125 1.75675 59.1865C2.31175 59.8225 1.48907 60.5976 1.76412 61.1616C1.74693 62.2025 0.452743 62.9652 1.23613 64.0286C1.59713 64.6497 0.774447 65.0347 1.20421 65.7279C0.83093 66.5776 0.327499 67.1589 0.0303519 68.0086C-0.15383 68.7117 0.536239 72.1078 1.12808 70.5501C2.11775 69.7402 2.24299 71.7302 2.02443 72.3836C2.11284 73.0246 2.79554 73.2134 2.87903 73.8643C14.2369 72.3165 1.3098 81.9361 14.2345 79.6455C16.5871 79.3399 13.7654 79.1163 12.8421 79.3648C11.1476 78.6716 9.13877 76.7835 8.3652 75.6431C9.39908 75.5189 8.21049 75.1165 8.10735 74.4109C9.03808 74.3612 8.05087 74.0755 7.87651 73.4693C7.78319 73.0171 7.12013 72.5675 7.09066 72.2022C7.54252 72.3836 7.10785 70.883 6.75177 70.7588C7.30677 70.252 6.84018 68.9849 7.73653 68.7837C8.2154 68.739 7.70952 68.5775 7.6825 68.3564C7.72425 67.8545 8.01157 68.2073 8.00666 68.4831C8.65498 68.7564 9.2812 67.2111 9.20753 66.6571C8.61078 64.3838 13.289 63.4099 11.3637 62.3864C14.291 59.9864 5.94382 61.092 9.93443 56.8288C10.7276 57.0201 10.627 56.3368 11.1795 55.9741C11.5086 55.8325 11.2974 56.1157 11.3882 56.235C11.7394 55.8549 11.9604 56.5828 12.2085 56.0089C11.8769 55.7828 11.6903 55.522 12.0096 55.0996C12.4639 55.3008 12.2993 54.9804 12.5817 54.7866C12.6088 53.4003 12.4491 51.7308 14.1141 51.2513C11.6436 51.127 14.0085 49.3606 14.3573 50.7469C14.3695 51.0103 14.7256 51.06 14.8902 50.8687C15.6981 50.6004 15.4353 50.0016 15.342 49.4078C15.2757 48.6824 14.8852 49.5395 14.5685 49.3159C14.011 49.4352 15.1284 49.3557 14.733 49.8277C13.208 50.4563 14.4874 48.9408 13.5911 49.4675C12.4761 49.5271 13.068 48.7992 13.1588 48.1259C12.9771 47.5495 12.7193 47.0154 12.8961 46.3644C12.7905 45.6862 13.8858 45.5595 13.289 46.2502C13.9471 46.198 14.5365 46.4365 15.1603 46.6278C15.5753 47.0377 16.7492 47.2712 16.759 46.5682C17.0684 46.3297 17.9132 46.2452 17.7143 45.6837C17.7708 45.239 17.0291 44.8142 17.7732 44.6154C17.8739 43.8825 17.5522 44.0962 18.2103 43.5645C18.5812 43.1198 17.4122 41.9869 18.2619 42.5956C18.2816 42.2304 17.6234 41.4602 17.8322 40.9286C20.924 42.7049 27.277 40.5981 28.694 37.0951C29.8236 34.9411 26.2309 35.52 28.1267 33.7064C27.8787 32.6381 26.4322 31.7238 25.5924 30.9611C25.7102 30.0195 25.2166 28.3252 26.0516 27.7215C26.8522 27.9898 26.0884 27.0606 26.1302 26.7227C26.3929 25.5153 26.6041 24.3452 26.9283 23.252C26.9357 20.5589 29.885 19.3267 31.5746 16.9491C31.5451 16.5988 31.8693 16.6932 32.0879 16.7156C32.2254 16.4994 32.0215 16.2361 32.3948 16.0646C32.2205 16.2435 33.7676 15.1852 34.5682 14.6858C35.467 14.5343 36.9085 14.174 36.798 12.8995ZM8.92266 4.36558C8.9595 4.40036 8.99633 4.43266 9.00861 4.47987C8.90793 4.44508 8.82197 4.29105 8.92266 4.36558Z" fill="#001B30"/>
<path d="M41.1669 42.8C41.1669 40.6027 41.6575 38.64 42.6389 36.912C43.6415 35.1627 44.9962 33.808 46.7029 32.848C48.4309 31.8667 50.3615 31.376 52.4949 31.376C54.9909 31.376 57.1775 32.016 59.0549 33.296C60.9322 34.576 62.2442 36.3467 62.9909 38.608H57.8389C57.3269 37.5413 56.6015 36.7413 55.6629 36.208C54.7455 35.6747 53.6789 35.408 52.4629 35.408C51.1615 35.408 49.9989 35.7173 48.9749 36.336C47.9722 36.9333 47.1829 37.7867 46.6069 38.896C46.0522 40.0053 45.7749 41.3067 45.7749 42.8C45.7749 44.272 46.0522 45.5733 46.6069 46.704C47.1829 47.8133 47.9722 48.6773 48.9749 49.296C49.9989 49.8933 51.1615 50.192 52.4629 50.192C53.6789 50.192 54.7455 49.9253 55.6629 49.392C56.6015 48.8373 57.3269 48.0267 57.8389 46.96H62.9909C62.2442 49.2427 60.9322 51.024 59.0549 52.304C57.1989 53.5627 55.0122 54.192 52.4949 54.192C50.3615 54.192 48.4309 53.712 46.7029 52.752C44.9962 51.7707 43.6415 50.416 42.6389 48.688C41.6575 46.96 41.1669 44.9973 41.1669 42.8ZM74.6894 54.288C72.9827 54.288 71.4467 53.9147 70.0814 53.168C68.716 52.4 67.6387 51.3227 66.8494 49.936C66.0814 48.5493 65.6974 46.9493 65.6974 45.136C65.6974 43.3227 66.092 41.7227 66.8814 40.336C67.692 38.9493 68.7907 37.8827 70.1774 37.136C71.564 36.368 73.1107 35.984 74.8174 35.984C76.524 35.984 78.0707 36.368 79.4574 37.136C80.844 37.8827 81.932 38.9493 82.7214 40.336C83.532 41.7227 83.9374 43.3227 83.9374 45.136C83.9374 46.9493 83.5214 48.5493 82.6894 49.936C81.8787 51.3227 80.7694 52.4 79.3614 53.168C77.9747 53.9147 76.4174 54.288 74.6894 54.288ZM74.6894 50.384C75.5 50.384 76.2574 50.192 76.9614 49.808C77.6867 49.4027 78.2627 48.8053 78.6894 48.016C79.116 47.2267 79.3294 46.2667 79.3294 45.136C79.3294 43.4507 78.8814 42.16 77.9854 41.264C77.1107 40.3467 76.0334 39.888 74.7534 39.888C73.4734 39.888 72.396 40.3467 71.5214 41.264C70.668 42.16 70.2414 43.4507 70.2414 45.136C70.2414 46.8213 70.6574 48.1227 71.4894 49.04C72.3427 49.936 73.4094 50.384 74.6894 50.384ZM97.0476 36.016C99.1596 36.016 100.866 36.688 102.168 38.032C103.469 39.3547 104.12 41.2107 104.12 43.6V54H99.6396V44.208C99.6396 42.8 99.2876 41.7227 98.5836 40.976C97.8796 40.208 96.9196 39.824 95.7036 39.824C94.4663 39.824 93.485 40.208 92.7596 40.976C92.0556 41.7227 91.7036 42.8 91.7036 44.208V54H87.2236V36.272H91.7036V38.48C92.301 37.712 93.0583 37.1147 93.9756 36.688C94.9143 36.24 95.9383 36.016 97.0476 36.016ZM116.252 54.288C114.545 54.288 113.009 53.9147 111.644 53.168C110.279 52.4 109.201 51.3227 108.412 49.936C107.644 48.5493 107.26 46.9493 107.26 45.136C107.26 43.3227 107.655 41.7227 108.444 40.336C109.255 38.9493 110.353 37.8827 111.74 37.136C113.127 36.368 114.673 35.984 116.38 35.984C118.087 35.984 119.633 36.368 121.02 37.136C122.407 37.8827 123.495 38.9493 124.284 40.336C125.095 41.7227 125.5 43.3227 125.5 45.136C125.5 46.9493 125.084 48.5493 124.252 49.936C123.441 51.3227 122.332 52.4 120.924 53.168C119.537 53.9147 117.98 54.288 116.252 54.288ZM116.252 50.384C117.063 50.384 117.82 50.192 118.524 49.808C119.249 49.4027 119.825 48.8053 120.252 48.016C120.679 47.2267 120.892 46.2667 120.892 45.136C120.892 43.4507 120.444 42.16 119.548 41.264C118.673 40.3467 117.596 39.888 116.316 39.888C115.036 39.888 113.959 40.3467 113.084 41.264C112.231 42.16 111.804 43.4507 111.804 45.136C111.804 46.8213 112.22 48.1227 113.052 49.04C113.905 49.936 114.972 50.384 116.252 50.384ZM127.634 45.136C127.634 43.3013 128.007 41.7013 128.754 40.336C129.501 38.9493 130.535 37.8827 131.858 37.136C133.181 36.368 134.695 35.984 136.402 35.984C138.599 35.984 140.413 36.5387 141.842 37.648C143.293 38.736 144.263 40.272 144.754 42.256H139.922C139.666 41.488 139.229 40.8907 138.61 40.464C138.013 40.016 137.266 39.792 136.37 39.792C135.09 39.792 134.077 40.2613 133.33 41.2C132.583 42.1173 132.21 43.4293 132.21 45.136C132.21 46.8213 132.583 48.1333 133.33 49.072C134.077 49.9893 135.09 50.448 136.37 50.448C138.183 50.448 139.367 49.6373 139.922 48.016H144.754C144.263 49.936 143.293 51.4613 141.842 52.592C140.391 53.7227 138.578 54.288 136.402 54.288C134.695 54.288 133.181 53.9147 131.858 53.168C130.535 52.4 129.501 51.3333 128.754 49.968C128.007 48.5813 127.634 46.9707 127.634 45.136ZM150.308 34.16C149.519 34.16 148.857 33.9147 148.324 33.424C147.812 32.912 147.556 32.2827 147.556 31.536C147.556 30.7893 147.812 30.1707 148.324 29.68C148.857 29.168 149.519 28.912 150.308 28.912C151.097 28.912 151.748 29.168 152.26 29.68C152.793 30.1707 153.06 30.7893 153.06 31.536C153.06 32.2827 152.793 32.912 152.26 33.424C151.748 33.9147 151.097 34.16 150.308 34.16ZM152.516 36.272V54H148.036V36.272H152.516ZM173.422 44.752C173.422 45.392 173.38 45.968 173.294 46.48H160.334C160.441 47.76 160.889 48.7627 161.678 49.488C162.468 50.2133 163.438 50.576 164.59 50.576C166.254 50.576 167.438 49.8613 168.142 48.432H172.974C172.462 50.1387 171.481 51.5467 170.03 52.656C168.58 53.744 166.798 54.288 164.686 54.288C162.98 54.288 161.444 53.9147 160.078 53.168C158.734 52.4 157.678 51.3227 156.91 49.936C156.164 48.5493 155.79 46.9493 155.79 45.136C155.79 43.3013 156.164 41.6907 156.91 40.304C157.657 38.9173 158.702 37.8507 160.046 37.104C161.39 36.3573 162.937 35.984 164.686 35.984C166.372 35.984 167.876 36.3467 169.198 37.072C170.542 37.7973 171.577 38.832 172.302 40.176C173.049 41.4987 173.422 43.024 173.422 44.752ZM168.782 43.472C168.761 42.32 168.345 41.4027 167.534 40.72C166.724 40.016 165.732 39.664 164.558 39.664C163.449 39.664 162.51 40.0053 161.742 40.688C160.996 41.3493 160.537 42.2773 160.366 43.472H168.782ZM186.516 36.016C188.628 36.016 190.335 36.688 191.636 38.032C192.938 39.3547 193.588 41.2107 193.588 43.6V54H189.108V44.208C189.108 42.8 188.756 41.7227 188.052 40.976C187.348 40.208 186.388 39.824 185.172 39.824C183.935 39.824 182.954 40.208 182.228 40.976C181.524 41.7227 181.172 42.8 181.172 44.208V54H176.692V36.272H181.172V38.48C181.77 37.712 182.527 37.1147 183.444 36.688C184.383 36.24 185.407 36.016 186.516 36.016ZM196.697 45.072C196.697 43.28 197.049 41.6907 197.753 40.304C198.478 38.9173 199.459 37.8507 200.697 37.104C201.934 36.3573 203.31 35.984 204.825 35.984C205.977 35.984 207.075 36.24 208.121 36.752C209.166 37.2427 209.998 37.904 210.617 38.736V30.32H215.161V54H210.617V51.376C210.062 52.2507 209.283 52.9547 208.281 53.488C207.278 54.0213 206.115 54.288 204.793 54.288C203.299 54.288 201.934 53.904 200.697 53.136C199.459 52.368 198.478 51.2907 197.753 49.904C197.049 48.496 196.697 46.8853 196.697 45.072ZM210.649 45.136C210.649 44.048 210.435 43.12 210.009 42.352C209.582 41.5627 209.006 40.9653 208.281 40.56C207.555 40.1333 206.777 39.92 205.945 39.92C205.113 39.92 204.345 40.1227 203.641 40.528C202.937 40.9333 202.361 41.5307 201.913 42.32C201.486 43.088 201.273 44.0053 201.273 45.072C201.273 46.1387 201.486 47.0773 201.913 47.888C202.361 48.6773 202.937 49.2853 203.641 49.712C204.366 50.1387 205.134 50.352 205.945 50.352C206.777 50.352 207.555 50.1493 208.281 49.744C209.006 49.3173 209.582 48.72 210.009 47.952C210.435 47.1627 210.649 46.224 210.649 45.136ZM227.408 54.288C225.701 54.288 224.165 53.9147 222.8 53.168C221.435 52.4 220.357 51.3227 219.568 49.936C218.8 48.5493 218.416 46.9493 218.416 45.136C218.416 43.3227 218.811 41.7227 219.6 40.336C220.411 38.9493 221.509 37.8827 222.896 37.136C224.283 36.368 225.829 35.984 227.536 35.984C229.243 35.984 230.789 36.368 232.176 37.136C233.563 37.8827 234.651 38.9493 235.44 40.336C236.251 41.7227 236.656 43.3227 236.656 45.136C236.656 46.9493 236.24 48.5493 235.408 49.936C234.597 51.3227 233.488 52.4 232.08 53.168C230.693 53.9147 229.136 54.288 227.408 54.288ZM227.408 50.384C228.219 50.384 228.976 50.192 229.68 49.808C230.405 49.4027 230.981 48.8053 231.408 48.016C231.835 47.2267 232.048 46.2667 232.048 45.136C232.048 43.4507 231.6 42.16 230.704 41.264C229.829 40.3467 228.752 39.888 227.472 39.888C226.192 39.888 225.115 40.3467 224.24 41.264C223.387 42.16 222.96 43.4507 222.96 45.136C222.96 46.8213 223.376 48.1227 224.208 49.04C225.061 49.936 226.128 50.384 227.408 50.384ZM261.263 49.744H252.367L250.895 54H246.191L254.223 31.632H259.439L267.471 54H262.735L261.263 49.744ZM260.047 46.16L256.815 36.816L253.583 46.16H260.047ZM274.954 39.024C275.53 38.0853 276.276 37.3493 277.194 36.816C278.132 36.2827 279.199 36.016 280.394 36.016V40.72H279.21C277.802 40.72 276.735 41.0507 276.01 41.712C275.306 42.3733 274.954 43.5253 274.954 45.168V54H270.474V36.272H274.954V39.024ZM290.355 35.984C291.678 35.984 292.84 36.2507 293.843 36.784C294.846 37.296 295.635 37.968 296.211 38.8V36.272H300.723V54.128C300.723 55.7707 300.392 57.232 299.731 58.512C299.07 59.8133 298.078 60.8373 296.755 61.584C295.432 62.352 293.832 62.736 291.955 62.736C289.438 62.736 287.368 62.1493 285.747 60.976C284.147 59.8027 283.24 58.2027 283.027 56.176H287.475C287.71 56.9867 288.211 57.6267 288.979 58.096C289.768 58.5867 290.718 58.832 291.827 58.832C293.128 58.832 294.184 58.4373 294.995 57.648C295.806 56.88 296.211 55.7067 296.211 54.128V51.376C295.635 52.208 294.835 52.9013 293.811 53.456C292.808 54.0107 291.656 54.288 290.355 54.288C288.862 54.288 287.496 53.904 286.259 53.136C285.022 52.368 284.04 51.2907 283.315 49.904C282.611 48.496 282.259 46.8853 282.259 45.072C282.259 43.28 282.611 41.6907 283.315 40.304C284.04 38.9173 285.011 37.8507 286.227 37.104C287.464 36.3573 288.84 35.984 290.355 35.984ZM296.211 45.136C296.211 44.048 295.998 43.12 295.571 42.352C295.144 41.5627 294.568 40.9653 293.843 40.56C293.118 40.1333 292.339 39.92 291.507 39.92C290.675 39.92 289.907 40.1227 289.203 40.528C288.499 40.9333 287.923 41.5307 287.475 42.32C287.048 43.088 286.835 44.0053 286.835 45.072C286.835 46.1387 287.048 47.0773 287.475 47.888C287.923 48.6773 288.499 49.2853 289.203 49.712C289.928 50.1387 290.696 50.352 291.507 50.352C292.339 50.352 293.118 50.1493 293.843 49.744C294.568 49.3173 295.144 48.72 295.571 47.952C295.998 47.1627 296.211 46.224 296.211 45.136ZM321.579 44.752C321.579 45.392 321.536 45.968 321.451 46.48H308.491C308.597 47.76 309.045 48.7627 309.835 49.488C310.624 50.2133 311.595 50.576 312.747 50.576C314.411 50.576 315.595 49.8613 316.299 48.432H321.131C320.619 50.1387 319.637 51.5467 318.187 52.656C316.736 53.744 314.955 54.288 312.843 54.288C311.136 54.288 309.6 53.9147 308.235 53.168C306.891 52.4 305.835 51.3227 305.067 49.936C304.32 48.5493 303.947 46.9493 303.947 45.136C303.947 43.3013 304.32 41.6907 305.067 40.304C305.813 38.9173 306.859 37.8507 308.203 37.104C309.547 36.3573 311.093 35.984 312.843 35.984C314.528 35.984 316.032 36.3467 317.355 37.072C318.699 37.7973 319.733 38.832 320.459 40.176C321.205 41.4987 321.579 43.024 321.579 44.752ZM316.939 43.472C316.917 42.32 316.501 41.4027 315.691 40.72C314.88 40.016 313.888 39.664 312.715 39.664C311.605 39.664 310.667 40.0053 309.899 40.688C309.152 41.3493 308.693 42.2773 308.523 43.472H316.939ZM334.673 36.016C336.785 36.016 338.491 36.688 339.793 38.032C341.094 39.3547 341.745 41.2107 341.745 43.6V54H337.265V44.208C337.265 42.8 336.913 41.7227 336.209 40.976C335.505 40.208 334.545 39.824 333.329 39.824C332.091 39.824 331.11 40.208 330.385 40.976C329.681 41.7227 329.329 42.8 329.329 44.208V54H324.849V36.272H329.329V38.48C329.926 37.712 330.683 37.1147 331.601 36.688C332.539 36.24 333.563 36.016 334.673 36.016ZM351.221 39.952V48.528C351.221 49.1253 351.36 49.5627 351.637 49.84C351.936 50.096 352.426 50.224 353.109 50.224H355.189V54H352.373C348.597 54 346.709 52.1653 346.709 48.496V39.952H344.597V36.272H346.709V31.888H351.221V36.272H355.189V39.952H351.221ZM360.683 34.16C359.894 34.16 359.232 33.9147 358.699 33.424C358.187 32.912 357.931 32.2827 357.931 31.536C357.931 30.7893 358.187 30.1707 358.699 29.68C359.232 29.168 359.894 28.912 360.683 28.912C361.472 28.912 362.123 29.168 362.635 29.68C363.168 30.1707 363.435 30.7893 363.435 31.536C363.435 32.2827 363.168 32.912 362.635 33.424C362.123 33.9147 361.472 34.16 360.683 34.16ZM362.891 36.272V54H358.411V36.272H362.891ZM377.141 36.016C379.253 36.016 380.96 36.688 382.261 38.032C383.563 39.3547 384.213 41.2107 384.213 43.6V54H379.733V44.208C379.733 42.8 379.381 41.7227 378.677 40.976C377.973 40.208 377.013 39.824 375.797 39.824C374.56 39.824 373.579 40.208 372.853 40.976C372.149 41.7227 371.797 42.8 371.797 44.208V54H367.317V36.272H371.797V38.48C372.395 37.712 373.152 37.1147 374.069 36.688C375.008 36.24 376.032 36.016 377.141 36.016ZM387.322 45.072C387.322 43.28 387.674 41.6907 388.378 40.304C389.103 38.9173 390.074 37.8507 391.29 37.104C392.527 36.3573 393.903 35.984 395.418 35.984C396.74 35.984 397.892 36.2507 398.874 36.784C399.876 37.3173 400.676 37.9893 401.274 38.8V36.272H405.786V54H401.274V51.408C400.698 52.24 399.898 52.9333 398.874 53.488C397.871 54.0213 396.708 54.288 395.386 54.288C393.892 54.288 392.527 53.904 391.29 53.136C390.074 52.368 389.103 51.2907 388.378 49.904C387.674 48.496 387.322 46.8853 387.322 45.072ZM401.274 45.136C401.274 44.048 401.06 43.12 400.634 42.352C400.207 41.5627 399.631 40.9653 398.906 40.56C398.18 40.1333 397.402 39.92 396.57 39.92C395.738 39.92 394.97 40.1227 394.266 40.528C393.562 40.9333 392.986 41.5307 392.538 42.32C392.111 43.088 391.898 44.0053 391.898 45.072C391.898 46.1387 392.111 47.0773 392.538 47.888C392.986 48.6773 393.562 49.2853 394.266 49.712C394.991 50.1387 395.759 50.352 396.57 50.352C397.402 50.352 398.18 50.1493 398.906 49.744C399.631 49.3173 400.207 48.72 400.634 47.952C401.06 47.1627 401.274 46.224 401.274 45.136Z" fill="#001B30"/>
</svg>
