<svg width="470" height="122" viewBox="0 0 470 122" fill="none" xmlns="http://www.w3.org/2000/svg">
<path d="M55.6943 20.0105C56.4674 18.0528 55.8132 14.0847 53.2858 15.9748C53.0367 16.8841 53.3229 18.0979 52.561 18.9471C51.6615 20.142 49.6804 20.2435 49.0374 21.7616C48.1603 22.9716 47.4503 20.7808 46.339 21.9833C43.3953 22.2651 42.5293 20.7132 39.6562 21.0138C40.1431 19.755 41.8342 16.8428 43.2541 15.0091C42.7709 13.0889 39.6376 12.7357 37.8721 11.4205C36.3928 9.22227 32.8544 9.69197 31.6092 7.5238C26.1455 2.7666 27.6805 2.58999 27.3572 2.65387C26.0712 1.20341 24.0901 0.207635 22.2911 1.23348C21.6184 2.04889 21.9083 3.60832 20.9568 4.16821C19.8752 -0.310923 18.578 2.04137 15.5786 0.992986C14.6865 0.350426 14.3483 0.158785 14.0695 1.52282C13.0734 1.65809 12.7612 2.47726 11.9584 2.9883C9.67995 5.11514 13.3113 8.69244 8.39021 9.75585C6.82915 10.3007 6.43516 11.7437 7.27888 12.7883C6.57269 12.3035 6.78454 14.0734 6.61729 14.4003C7.18596 14.2989 7.71375 16.4445 7.31977 16.6324C6.24932 17.5417 7.69888 18.2482 7.7472 19.1726C6.37198 19.879 6.14525 20.8485 5.60259 22.344C3.88914 24.2755 2.93391 27.1501 3.7256 29.7316C3.77392 31.4488 2.51391 32.0125 2.41727 33.7673C2.40984 35.0412 1.58842 34.7932 1.5847 36.0031C2.23143 38.3254 3.51002 40.2944 3.98206 43.0375C4.55073 42.4813 5.25321 42.3573 4.52471 43.5222C4.10471 44.0595 4.48011 44.8937 4.62135 45.5288C2.76294 48.426 3.28701 52.3414 3.28701 54.4345C2.81126 52.9878 2.5548 54.799 1.76311 54.9943C0.759569 57.2677 1.34311 59.7215 2.12736 62.0174C3.68843 63.513 1.15727 64.0127 1.49178 65.2753C2.06046 66.241 1.0532 67.0489 0.897091 67.8869C1.48435 68.9992 0.268948 69.2058 1.00116 70.0551C0.532842 72.0203 0.506825 72.4788 0.503108 74.553C0.655498 75.7254 2.68489 75.7442 0.923109 76.3153C0.789303 76.8489 1.28364 77.4013 0.618329 77.7057C0.666648 78.4948 0.919392 78.8818 1.57727 79.1261C0.707533 80.3435 2.3578 81.0462 1.92665 82.2336C2.01586 82.553 1.49922 84.7813 2.22772 84.1651C2.32435 83.9622 2.56223 83.7931 2.69604 84.0561C4.79233 83.8344 2.85586 85.7583 1.69993 85.1045C1.18329 85.4427 2.19426 85.7921 1.9601 86.3257C2.49904 86.4422 3.31303 86.3107 3.51745 87.066C3.02683 88.1069 2.16453 88.3323 2.76666 89.4145C2.14223 89.0876 2.40612 89.7565 2.65887 90.0195C3.49887 90.9815 2.25373 92.1539 2.67002 93.0069C2.644 94.5813 0.685232 95.7349 1.8709 97.3432C2.41727 98.2826 1.17214 98.8651 1.82258 99.9134C1.25762 101.199 0.495674 102.078 0.045938 103.363C-0.232824 104.426 0.811604 109.563 1.70736 107.207C3.20524 105.982 3.3948 108.992 3.064 109.98C3.19781 110.95 4.23108 111.235 4.35746 112.22C21.5478 109.879 1.9824 124.428 21.5441 120.964C25.1048 120.502 20.8342 120.163 19.4366 120.539C16.872 119.491 13.8316 116.635 12.6608 114.91C14.2256 114.722 12.4267 114.114 12.2706 113.046C13.6793 112.971 12.1851 112.539 11.9212 111.622C11.78 110.938 10.7764 110.258 10.7318 109.706C11.4157 109.98 10.7578 107.711 10.2189 107.523C11.0589 106.756 10.3527 104.84 11.7093 104.535C12.4341 104.468 11.6685 104.223 11.6276 103.889C11.6908 103.13 12.1256 103.664 12.1182 104.081C13.0994 104.494 14.0472 102.157 13.9357 101.319C13.0325 97.8805 20.1131 96.4075 17.1991 94.8594C21.6296 91.2295 8.99606 92.9016 15.0359 86.4535C16.2364 86.7428 16.084 85.7095 16.9203 85.1609C17.4184 84.9467 17.0987 85.375 17.2363 85.5554C17.7678 84.9805 18.1023 86.0815 18.4777 85.2135C17.9759 84.8715 17.6934 84.477 18.1766 83.8382C18.8642 84.1425 18.6152 83.6578 19.0426 83.3647C19.0835 81.2679 18.8419 78.7428 21.3619 78.0175C17.6228 77.8297 21.2021 75.158 21.7299 77.2547C21.7485 77.653 22.2874 77.7282 22.5365 77.4389C23.7593 77.033 23.3616 76.1274 23.2204 75.2294C23.12 74.1321 22.529 75.4285 22.0496 75.0903C21.2058 75.2707 22.897 75.1504 22.2986 75.8644C19.9904 76.8151 21.9269 74.5229 20.5703 75.3195C18.8828 75.4097 19.7786 74.3087 19.9161 73.2904C19.641 72.4186 19.2508 71.6107 19.5184 70.6262C19.3586 69.6004 21.0163 69.4087 20.1131 70.4534C21.1092 70.3745 22.0012 70.7352 22.9453 71.0245C23.5735 71.6445 25.3501 71.9978 25.365 70.9343C25.8333 70.5736 27.1119 70.4459 26.8108 69.5966C26.8963 68.924 25.7738 68.2814 26.9 67.9808C27.0524 66.8723 26.5655 67.1955 27.5616 66.3913C28.1228 65.7187 26.3536 64.0052 27.6397 64.9258C27.6694 64.3735 26.6733 63.2086 26.9892 62.4045C31.6687 65.0912 41.2841 61.9047 43.4287 56.6064C45.1385 53.3485 39.7008 54.224 42.5702 51.4809C42.1948 49.8651 40.0055 48.4823 38.7344 47.3287C38.9128 45.9046 38.1657 43.3418 39.4294 42.4287C40.6411 42.8345 39.4852 41.4292 39.5484 40.9181C39.9461 39.0919 40.2657 37.3221 40.7563 35.6687C40.7675 31.5954 45.2314 29.7316 47.7886 26.1355C47.744 25.6057 48.2346 25.7485 48.5654 25.7823C48.7735 25.4554 48.465 25.0571 49.03 24.7978C48.7661 25.0683 51.1077 23.4676 52.3194 22.7123C53.6797 22.4831 55.8615 21.9382 55.6943 20.0105ZM13.5046 7.10294C13.5603 7.15555 13.6161 7.2044 13.6347 7.2758C13.4823 7.22319 13.3522 6.99021 13.5046 7.10294Z" fill="#F5FAFF"/>
<path d="M57.3127 92.9C57.3127 90.428 57.8647 88.22 58.9687 86.276C60.0967 84.308 61.6207 82.784 63.5407 81.704C65.4847 80.6 67.6567 80.048 70.0567 80.048C72.8647 80.048 75.3247 80.768 77.4367 82.208C79.5487 83.648 81.0247 85.64 81.8647 88.184H76.0687C75.4927 86.984 74.6767 86.084 73.6207 85.484C72.5887 84.884 71.3887 84.584 70.0207 84.584C68.5567 84.584 67.2487 84.932 66.0967 85.628C64.9687 86.3 64.0807 87.26 63.4327 88.508C62.8087 89.756 62.4967 91.22 62.4967 92.9C62.4967 94.556 62.8087 96.02 63.4327 97.292C64.0807 98.54 64.9687 99.512 66.0967 100.208C67.2487 100.88 68.5567 101.216 70.0207 101.216C71.3887 101.216 72.5887 100.916 73.6207 100.316C74.6767 99.692 75.4927 98.78 76.0687 97.58H81.8647C81.0247 100.148 79.5487 102.152 77.4367 103.592C75.3487 105.008 72.8887 105.716 70.0567 105.716C67.6567 105.716 65.4847 105.176 63.5407 104.096C61.6207 102.992 60.0967 101.468 58.9687 99.524C57.8647 97.58 57.3127 95.372 57.3127 92.9ZM95.0255 105.824C93.1055 105.824 91.3775 105.404 89.8415 104.564C88.3055 103.7 87.0935 102.488 86.2055 100.928C85.3415 99.368 84.9095 97.568 84.9095 95.528C84.9095 93.488 85.3535 91.688 86.2415 90.128C87.1535 88.568 88.3895 87.368 89.9495 86.528C91.5095 85.664 93.2495 85.232 95.1695 85.232C97.0895 85.232 98.8295 85.664 100.39 86.528C101.95 87.368 103.174 88.568 104.062 90.128C104.974 91.688 105.43 93.488 105.43 95.528C105.43 97.568 104.962 99.368 104.026 100.928C103.114 102.488 101.866 103.7 100.282 104.564C98.7215 105.404 96.9695 105.824 95.0255 105.824ZM95.0255 101.432C95.9375 101.432 96.7895 101.216 97.5815 100.784C98.3975 100.328 99.0455 99.656 99.5255 98.768C100.006 97.88 100.246 96.8 100.246 95.528C100.246 93.632 99.7415 92.18 98.7335 91.172C97.7495 90.14 96.5375 89.624 95.0975 89.624C93.6575 89.624 92.4455 90.14 91.4615 91.172C90.5015 92.18 90.0215 93.632 90.0215 95.528C90.0215 97.424 90.4895 98.888 91.4255 99.92C92.3855 100.928 93.5855 101.432 95.0255 101.432ZM120.179 85.268C122.555 85.268 124.475 86.024 125.939 87.536C127.403 89.024 128.135 91.112 128.135 93.8V105.5H123.095V94.484C123.095 92.9 122.699 91.688 121.907 90.848C121.115 89.984 120.035 89.552 118.667 89.552C117.275 89.552 116.171 89.984 115.355 90.848C114.563 91.688 114.167 92.9 114.167 94.484V105.5H109.127V85.556H114.167V88.04C114.839 87.176 115.691 86.504 116.723 86.024C117.779 85.52 118.931 85.268 120.179 85.268ZM141.783 105.824C139.863 105.824 138.135 105.404 136.599 104.564C135.063 103.7 133.851 102.488 132.963 100.928C132.099 99.368 131.667 97.568 131.667 95.528C131.667 93.488 132.111 91.688 132.999 90.128C133.911 88.568 135.147 87.368 136.707 86.528C138.267 85.664 140.007 85.232 141.927 85.232C143.847 85.232 145.587 85.664 147.147 86.528C148.707 87.368 149.931 88.568 150.819 90.128C151.731 91.688 152.187 93.488 152.187 95.528C152.187 97.568 151.719 99.368 150.783 100.928C149.871 102.488 148.623 103.7 147.039 104.564C145.479 105.404 143.727 105.824 141.783 105.824ZM141.783 101.432C142.695 101.432 143.547 101.216 144.339 100.784C145.155 100.328 145.803 99.656 146.283 98.768C146.763 97.88 147.003 96.8 147.003 95.528C147.003 93.632 146.499 92.18 145.491 91.172C144.507 90.14 143.295 89.624 141.855 89.624C140.415 89.624 139.203 90.14 138.219 91.172C137.259 92.18 136.779 93.632 136.779 95.528C136.779 97.424 137.247 98.888 138.183 99.92C139.143 100.928 140.343 101.432 141.783 101.432ZM154.588 95.528C154.588 93.464 155.008 91.664 155.848 90.128C156.688 88.568 157.852 87.368 159.34 86.528C160.828 85.664 162.532 85.232 164.452 85.232C166.924 85.232 168.964 85.856 170.572 87.104C172.204 88.328 173.296 90.056 173.848 92.288H168.412C168.124 91.424 167.632 90.752 166.936 90.272C166.264 89.768 165.424 89.516 164.416 89.516C162.976 89.516 161.836 90.044 160.996 91.1C160.156 92.132 159.736 93.608 159.736 95.528C159.736 97.424 160.156 98.9 160.996 99.956C161.836 100.988 162.976 101.504 164.416 101.504C166.456 101.504 167.788 100.592 168.412 98.768H173.848C173.296 100.928 172.204 102.644 170.572 103.916C168.94 105.188 166.9 105.824 164.452 105.824C162.532 105.824 160.828 105.404 159.34 104.564C157.852 103.7 156.688 102.5 155.848 100.964C155.008 99.404 154.588 97.592 154.588 95.528ZM180.097 83.18C179.209 83.18 178.465 82.904 177.865 82.352C177.289 81.776 177.001 81.068 177.001 80.228C177.001 79.388 177.289 78.692 177.865 78.14C178.465 77.564 179.209 77.276 180.097 77.276C180.985 77.276 181.717 77.564 182.293 78.14C182.893 78.692 183.193 79.388 183.193 80.228C183.193 81.068 182.893 81.776 182.293 82.352C181.717 82.904 180.985 83.18 180.097 83.18ZM182.581 85.556V105.5H177.541V85.556H182.581ZM206.1 95.096C206.1 95.816 206.052 96.464 205.956 97.04H191.376C191.496 98.48 192 99.608 192.888 100.424C193.776 101.24 194.868 101.648 196.164 101.648C198.036 101.648 199.368 100.844 200.16 99.236H205.596C205.02 101.156 203.916 102.74 202.284 103.988C200.652 105.212 198.648 105.824 196.272 105.824C194.352 105.824 192.624 105.404 191.088 104.564C189.576 103.7 188.388 102.488 187.524 100.928C186.684 99.368 186.264 97.568 186.264 95.528C186.264 93.464 186.684 91.652 187.524 90.092C188.364 88.532 189.54 87.332 191.052 86.492C192.564 85.652 194.304 85.232 196.272 85.232C198.168 85.232 199.86 85.64 201.348 86.456C202.86 87.272 204.024 88.436 204.84 89.948C205.68 91.436 206.1 93.152 206.1 95.096ZM200.88 93.656C200.856 92.36 200.388 91.328 199.476 90.56C198.564 89.768 197.448 89.372 196.128 89.372C194.88 89.372 193.824 89.756 192.96 90.524C192.12 91.268 191.604 92.312 191.412 93.656H200.88ZM220.831 85.268C223.207 85.268 225.127 86.024 226.591 87.536C228.055 89.024 228.787 91.112 228.787 93.8V105.5H223.747V94.484C223.747 92.9 223.351 91.688 222.559 90.848C221.767 89.984 220.687 89.552 219.319 89.552C217.927 89.552 216.823 89.984 216.007 90.848C215.215 91.688 214.819 92.9 214.819 94.484V105.5H209.779V85.556H214.819V88.04C215.491 87.176 216.343 86.504 217.375 86.024C218.431 85.52 219.583 85.268 220.831 85.268ZM232.284 95.456C232.284 93.44 232.68 91.652 233.472 90.092C234.288 88.532 235.392 87.332 236.784 86.492C238.176 85.652 239.724 85.232 241.428 85.232C242.724 85.232 243.96 85.52 245.136 86.096C246.312 86.648 247.248 87.392 247.944 88.328V78.86H253.056V105.5H247.944V102.548C247.32 103.532 246.444 104.324 245.316 104.924C244.188 105.524 242.88 105.824 241.392 105.824C239.712 105.824 238.176 105.392 236.784 104.528C235.392 103.664 234.288 102.452 233.472 100.892C232.68 99.308 232.284 97.496 232.284 95.456ZM247.98 95.528C247.98 94.304 247.74 93.26 247.26 92.396C246.78 91.508 246.132 90.836 245.316 90.38C244.5 89.9 243.624 89.66 242.688 89.66C241.752 89.66 240.888 89.888 240.096 90.344C239.304 90.8 238.656 91.472 238.152 92.36C237.672 93.224 237.432 94.256 237.432 95.456C237.432 96.656 237.672 97.712 238.152 98.624C238.656 99.512 239.304 100.196 240.096 100.676C240.912 101.156 241.776 101.396 242.688 101.396C243.624 101.396 244.5 101.168 245.316 100.712C246.132 100.232 246.78 99.56 247.26 98.696C247.74 97.808 247.98 96.752 247.98 95.528ZM266.834 105.824C264.914 105.824 263.186 105.404 261.65 104.564C260.114 103.7 258.902 102.488 258.014 100.928C257.15 99.368 256.718 97.568 256.718 95.528C256.718 93.488 257.162 91.688 258.05 90.128C258.962 88.568 260.198 87.368 261.758 86.528C263.318 85.664 265.058 85.232 266.978 85.232C268.898 85.232 270.638 85.664 272.198 86.528C273.758 87.368 274.982 88.568 275.87 90.128C276.782 91.688 277.238 93.488 277.238 95.528C277.238 97.568 276.77 99.368 275.834 100.928C274.922 102.488 273.674 103.7 272.09 104.564C270.53 105.404 268.778 105.824 266.834 105.824ZM266.834 101.432C267.746 101.432 268.598 101.216 269.39 100.784C270.206 100.328 270.854 99.656 271.334 98.768C271.814 97.88 272.054 96.8 272.054 95.528C272.054 93.632 271.55 92.18 270.542 91.172C269.558 90.14 268.346 89.624 266.906 89.624C265.466 89.624 264.254 90.14 263.27 91.172C262.31 92.18 261.83 93.632 261.83 95.528C261.83 97.424 262.298 98.888 263.234 99.92C264.194 100.928 265.394 101.432 266.834 101.432ZM304.921 100.712H294.913L293.257 105.5H287.965L297.001 80.336H302.869L311.905 105.5H306.577L304.921 100.712ZM303.553 96.68L299.917 86.168L296.281 96.68H303.553ZM320.323 88.652C320.971 87.596 321.811 86.768 322.843 86.168C323.899 85.568 325.099 85.268 326.443 85.268V90.56H325.111C323.527 90.56 322.327 90.932 321.511 91.676C320.719 92.42 320.323 93.716 320.323 95.564V105.5H315.283V85.556H320.323V88.652ZM337.65 85.232C339.138 85.232 340.446 85.532 341.574 86.132C342.702 86.708 343.59 87.464 344.238 88.4V85.556H349.314V105.644C349.314 107.492 348.942 109.136 348.198 110.576C347.454 112.04 346.338 113.192 344.85 114.032C343.362 114.896 341.562 115.328 339.45 115.328C336.618 115.328 334.29 114.668 332.466 113.348C330.666 112.028 329.646 110.228 329.406 107.948H334.41C334.674 108.86 335.238 109.58 336.102 110.108C336.99 110.66 338.058 110.936 339.306 110.936C340.77 110.936 341.958 110.492 342.87 109.604C343.782 108.74 344.238 107.42 344.238 105.644V102.548C343.59 103.484 342.69 104.264 341.538 104.888C340.41 105.512 339.114 105.824 337.65 105.824C335.97 105.824 334.434 105.392 333.042 104.528C331.65 103.664 330.546 102.452 329.73 100.892C328.938 99.308 328.542 97.496 328.542 95.456C328.542 93.44 328.938 91.652 329.73 90.092C330.546 88.532 331.638 87.332 333.006 86.492C334.398 85.652 335.946 85.232 337.65 85.232ZM344.238 95.528C344.238 94.304 343.998 93.26 343.518 92.396C343.038 91.508 342.39 90.836 341.574 90.38C340.758 89.9 339.882 89.66 338.946 89.66C338.01 89.66 337.146 89.888 336.354 90.344C335.562 90.8 334.914 91.472 334.41 92.36C333.93 93.224 333.69 94.256 333.69 95.456C333.69 96.656 333.93 97.712 334.41 98.624C334.914 99.512 335.562 100.196 336.354 100.676C337.17 101.156 338.034 101.396 338.946 101.396C339.882 101.396 340.758 101.168 341.574 100.712C342.39 100.232 343.038 99.56 343.518 98.696C343.998 97.808 344.238 96.752 344.238 95.528ZM372.776 95.096C372.776 95.816 372.728 96.464 372.632 97.04H358.052C358.172 98.48 358.676 99.608 359.564 100.424C360.452 101.24 361.544 101.648 362.84 101.648C364.712 101.648 366.044 100.844 366.836 99.236H372.272C371.696 101.156 370.592 102.74 368.96 103.988C367.328 105.212 365.324 105.824 362.948 105.824C361.028 105.824 359.3 105.404 357.764 104.564C356.252 103.7 355.064 102.488 354.2 100.928C353.36 99.368 352.94 97.568 352.94 95.528C352.94 93.464 353.36 91.652 354.2 90.092C355.04 88.532 356.216 87.332 357.728 86.492C359.24 85.652 360.98 85.232 362.948 85.232C364.844 85.232 366.536 85.64 368.024 86.456C369.536 87.272 370.7 88.436 371.516 89.948C372.356 91.436 372.776 93.152 372.776 95.096ZM367.556 93.656C367.532 92.36 367.064 91.328 366.152 90.56C365.24 89.768 364.124 89.372 362.804 89.372C361.556 89.372 360.5 89.756 359.636 90.524C358.796 91.268 358.28 92.312 358.088 93.656H367.556ZM387.507 85.268C389.883 85.268 391.803 86.024 393.267 87.536C394.731 89.024 395.463 91.112 395.463 93.8V105.5H390.423V94.484C390.423 92.9 390.027 91.688 389.235 90.848C388.443 89.984 387.363 89.552 385.995 89.552C384.603 89.552 383.499 89.984 382.683 90.848C381.891 91.688 381.495 92.9 381.495 94.484V105.5H376.455V85.556H381.495V88.04C382.167 87.176 383.019 86.504 384.051 86.024C385.107 85.52 386.259 85.268 387.507 85.268ZM406.123 89.696V99.344C406.123 100.016 406.279 100.508 406.591 100.82C406.927 101.108 407.479 101.252 408.247 101.252H410.587V105.5H407.419C403.171 105.5 401.047 103.436 401.047 99.308V89.696H398.671V85.556H401.047V80.624H406.123V85.556H410.587V89.696H406.123ZM416.769 83.18C415.881 83.18 415.137 82.904 414.537 82.352C413.961 81.776 413.673 81.068 413.673 80.228C413.673 79.388 413.961 78.692 414.537 78.14C415.137 77.564 415.881 77.276 416.769 77.276C417.657 77.276 418.389 77.564 418.965 78.14C419.565 78.692 419.865 79.388 419.865 80.228C419.865 81.068 419.565 81.776 418.965 82.352C418.389 82.904 417.657 83.18 416.769 83.18ZM419.253 85.556V105.5H414.213V85.556H419.253ZM435.284 85.268C437.66 85.268 439.58 86.024 441.044 87.536C442.508 89.024 443.24 91.112 443.24 93.8V105.5H438.2V94.484C438.2 92.9 437.804 91.688 437.012 90.848C436.22 89.984 435.14 89.552 433.772 89.552C432.38 89.552 431.276 89.984 430.46 90.848C429.668 91.688 429.272 92.9 429.272 94.484V105.5H424.232V85.556H429.272V88.04C429.944 87.176 430.796 86.504 431.828 86.024C432.884 85.52 434.036 85.268 435.284 85.268ZM446.737 95.456C446.737 93.44 447.133 91.652 447.925 90.092C448.741 88.532 449.833 87.332 451.201 86.492C452.593 85.652 454.141 85.232 455.845 85.232C457.333 85.232 458.629 85.532 459.733 86.132C460.861 86.732 461.761 87.488 462.433 88.4V85.556H467.509V105.5H462.433V102.584C461.785 103.52 460.885 104.3 459.733 104.924C458.605 105.524 457.297 105.824 455.809 105.824C454.129 105.824 452.593 105.392 451.201 104.528C449.833 103.664 448.741 102.452 447.925 100.892C447.133 99.308 446.737 97.496 446.737 95.456ZM462.433 95.528C462.433 94.304 462.193 93.26 461.713 92.396C461.233 91.508 460.585 90.836 459.769 90.38C458.953 89.9 458.077 89.66 457.141 89.66C456.205 89.66 455.341 89.888 454.549 90.344C453.757 90.8 453.109 91.472 452.605 92.36C452.125 93.224 451.885 94.256 451.885 95.456C451.885 96.656 452.125 97.712 452.605 98.624C453.109 99.512 453.757 100.196 454.549 100.676C455.365 101.156 456.229 101.396 457.141 101.396C458.077 101.396 458.953 101.168 459.769 100.712C460.585 100.232 461.233 99.56 461.713 98.696C462.193 97.808 462.433 96.752 462.433 95.528Z" fill="#F5FAFF"/>
</svg>
